<svg id="b83e0095-89a8-4fa3-a23e-79a852feea8d" data-name="Layer 1" xmlns="http://www.w3.org/2000/svg" viewBox="0 0 499.06 105.9"><title>grog-log</title><path d="M57.06,41.78l14.33,1.33a30.13,30.13,0,0,0-1.67-19c-4.33-10.33-16.66-17.33-25-18s-25.58-1-36.33,22C-2.94,52.32,4.06,85.45,25.06,92.78s36.66-7.67,36.66-7.67v8l12.67-1-1.67-38s-29.33-.91-37.33-1.79c0-.21-.67,16.46-.67,16.46l22-1S51.06,88.45,29.39,78.11c-14.33-7.33-10-31.33-7.33-39.33s8.33-19.67,21.33-18.67S57.39,36.11,57.06,41.78Z" fill="#9b2851"/><path d="M270.06,41.78l14.33,1.33a30.13,30.13,0,0,0-1.67-19c-4.33-10.33-16.66-17.33-25-18s-25.58-1-36.33,22c-11.33,24.21-4.33,57.34,16.67,64.67s36.66-7.67,36.66-7.67v8l12.67-1a298.72,298.72,0,0,1-1.67-38,293.89,293.89,0,0,1-37.33-1.79c0-.21-.67,16.46-.67,16.46l22-1s-5.66,20.67-27.33,10.33c-14.33-7.33-10-31.33-7.33-39.33s8.33-19.67,21.33-18.67S270.39,36.11,270.06,41.78Z" fill="#9b2851"/><path d="M474.72,41.78l14.34,1.33a30.21,30.21,0,0,0-1.67-19c-4.33-10.33-16.67-17.33-25-18s-25.58-1-36.33,22c-11.34,24.21-4.34,57.34,16.66,64.67s36.67-7.67,36.67-7.67v8l12.67-1-1.67-38s-29.33-.91-37.33-1.79c0-.21-.67,16.46-.67,16.46l22-1s-5.67,20.67-27.33,10.33c-14.34-7.33-10-31.33-7.34-39.33s8.34-19.67,21.34-18.67S475.06,36.11,474.72,41.78Z" fill="#9b2851"/><path d="M207,76c-62.31,35.51-80.2.78-82.39-11.26,16.31-1.18,21.48-17.1,22.13-26.27a28.68,28.68,0,0,0-11.66-24.67c-12.26-9.11-52-4.33-52-4,.66,3.33.33,80.67.33,80.67l16-1c-.48-4.33-.74-14.13-.89-24.88,3,.16,6.87.3,11.19.37a32,32,0,0,0,3,12.17c22.54,50.09,101.49,11.8,101.49,11.8C209.07,84.41,207,76,207,76ZM98.39,23.45c29.33-5,33.33,6,33.67,12.66s-5.34,15.67-14.34,16a171.48,171.48,0,0,1-19.33-.44C98.31,36.78,98.39,23.45,98.39,23.45Z" fill="#9b2851"/><path d="M205.08,13.82a27.32,27.32,0,0,0-19-10.12c-10.5-.69-19,3.05-25.33,11.12s-8.55,18.1-9.37,23.42c-1.63,10.63,1.15,21.49,7.45,29.05,4.79,5.76,11.19,9,18,9.25l1.77,0c20.05,0,31.14-10.89,33.88-33.23C214,31.82,211.31,21.33,205.08,13.82Zm-8.37,30.84c-2.21,14-10.39,19.71-17.54,19.16a10.54,10.54,0,0,1-7.67-4.49c-4.06-5.36-5.64-14.85-3.93-23.63,2.21-11.28,8.55-18,16.82-18a16.16,16.16,0,0,1,2.17.15,9.1,9.1,0,0,1,6.15,3.88C196.83,27.32,197.84,37.48,196.71,44.66Z" fill="#9b2851"/><path d="M408.62,13.82a27.36,27.36,0,0,0-19-10.12c-10.49-.69-19,3.05-25.33,11.12s-8.55,18.1-9.37,23.42c-1.63,10.63,1.15,21.49,7.45,29.05,4.79,5.76,11.19,9,18,9.25l1.77,0c20.05,0,31.14-10.89,33.88-33.23C417.48,31.82,414.84,21.33,408.62,13.82Zm-8.38,30.84c-2.21,14-10.41,19.71-17.53,19.16A10.5,10.5,0,0,1,375,59.33C371,54,369.39,44.48,371.11,35.7c2.2-11.28,8.54-18,16.81-18a16.16,16.16,0,0,1,2.17.15,9.1,9.1,0,0,1,6.15,3.88C400.36,27.32,401.37,37.48,400.24,44.66Z" fill="#9b2851"/><path d="M327.06,1.11s10,.22,18.77-.11c-2.92,44.39-4.77,84.11-4.77,84.11s38.48,1,56.32-.2A53.86,53.86,0,0,0,397,99.72c-34.55-1.83-71.66.91-71.66.91S327.18,54.75,327.06,1.11Z" fill="#9b2851"/></svg>