<svg xmlns="http://www.w3.org/2000/svg" xmlns:xlink="http://www.w3.org/1999/xlink" viewBox="0 0 504 504"><defs><clipPath id="e0fa99ea-26f5-4c5b-8317-e7ea44f2f2b2"><path d="M504.22,504.44H.22V.44h504Z" fill="none"/></clipPath></defs><title>Artboard 3</title><g style="isolation:isolate"><g id="ef5c51c1-be0b-45f0-acd3-86b556952c31" data-name="Layer 16"><g clip-path="url(#e0fa99ea-26f5-4c5b-8317-e7ea44f2f2b2)"><rect x="-14.02" y="-19.51" width="325.74" height="346.15" fill="#964433"/><polygon points="254 -19.51 156.27 -17.08 156.27 238.34 307.14 238.44 308.1 -19.51 254 -19.51" fill="#8c1f41"/><polygon points="-14.02 -19.51 -14.02 56.11 102.69 56.11 103.22 -19.51 -14.02 -19.51" fill="#8c1f41"/><polygon points="-14.02 120.48 -14.02 301.44 95.03 301.44 97.52 118.48 -14.02 120.48" fill="#8c1f41"/><path d="M209.5,40.68c0,1.33.07,2.65.15,4,.39,6,.89,12,1.3,18.08a89.68,89.68,0,0,1,17.14-9.11C221,50.26,215.13,45.28,209.5,40.68Z" fill="#ff5a85"/><path d="M290.36,57.83c1.1.91,2.26,1.78,3.45,2.63q3.07,1.95,6.12,3.93l1.28.74v-.57c.13-7.87.49-15.45.67-23-6.77,3.71-11.58,8.65-17.19,13.13l4.07,2.53A2.59,2.59,0,0,1,290.36,57.83Z" fill="#ff5a85"/><path d="M207,120.85a81.1,81.1,0,0,0,.36,13.14c1.15,9.27-1,8.14,7.45,7.8,3.7-.14,7.37-.13,11,0C219.8,134.61,213.47,127.68,207,120.85Z" fill="#ff5a85"/><path d="M296.49,130a116.87,116.87,0,0,1-10.78,9.73c-1.57,1.2-3.18,2.35-4.8,3.48,10.57-.63,22.29-1.44,22.33-1.6,1.59-6.71-.07-13.54,0-20.26C300.15,124,299.44,127.07,296.49,130Z" fill="#ff5a85"/><path d="M303.83,10.45a81.22,81.22,0,0,0-.36-13.15c-1.15-9.27,1-8.13-7.45-7.8-3.7.15-7.37.14-11,0C291.07-3.32,297.4,3.62,303.83,10.45Z" fill="#ff5a85"/><path d="M214.37,1.34A117,117,0,0,1,225.15-8.4c1.57-1.19,3.18-2.34,4.8-3.47-10.57.63-22.29,1.44-22.33,1.6-1.59,6.7.07,13.54,0,20.25C210.71,7.28,211.43,4.23,214.37,1.34Z" fill="#ff5a85"/><path d="M246.26,80.12c4.15,2,7.41,8.57,8.23,14.72,1-6.7,4.92-13.8,9.63-15-1.41-5.36-8.14-12.4-8.14-12.4S247.7,74.67,246.26,80.12Zm9.21,2.29s-4-10.59-.28-10.6S255.47,82.42,255.47,82.41Z" fill="#f3f7cb"/><path d="M263.52,115.4c-1.23-6.61-9-16.33-9-16.33s-8.09,9.56-9.4,16.18c4.41,1,8,6.49,8.82,11.59C254.87,121.52,258.8,115.89,263.52,115.4Zm-9.25-10.69c3.77,0-.35,5.48-.29,10.94C253.61,109.59,250.51,104.71,254.27,104.71Z" fill="#f3f7cb"/><path d="M234.55,96.17l.46,0c4.55.72,8.35,7.82,9.55,14.64,1.25-6.32,4.84-12.4,9.11-13-1.24-6.62-9.6-16.54-9.6-16.54S235.92,89.56,234.55,96.17Zm10,3.57s-4.34-13.65-.45-13.3S244.52,99.72,244.51,99.74Z" fill="#f3f7cb"/><path d="M244.47,138.07c1.19-4.17,4.56-8.23,8.63-8.92-1.21-5.13-9.17-12.82-9.17-12.82s-8,6.89-9.31,12.08h.14C239.38,128.69,243.25,133.45,244.47,138.07Zm-.67-18c3.77.08.29,9.58.29,9.59S240,120,243.8,120.06Z" fill="#f3f7cb"/><path d="M227,76.87c3.36,3,6,9.12,7,14.79,1.39-6.7,5.45-12.7,10.22-12.16l.44.07c-1.39-5.57-9-15.12-9-15.12S228.42,71.23,227,76.87Zm9.33,4.89c-.79-2.94-4.15-12.85-.47-12.09S235.58,79.09,236.37,81.76Z" fill="#f3f7cb"/><path d="M234.09,125c1.33-5.28,5.25-10.2,9.85-10-1.19-6.71-9.75-17.2-9.75-17.2s-7.19,8.6-8.55,15.51C229.69,114.77,233,120.05,234.09,125Zm.71-21.72c3.73.38-.17,11-.18,11.08S231.07,102.91,234.8,103.32Z" fill="#f3f7cb"/><path d="M255.26,97.87c4.53.82,8.18,7.81,9.06,14.57,1-7.18,5.13-15.11,10-15.75h.08c-1.28-6.65-9-14.74-9-14.74S256.6,91.28,255.26,97.87Zm9.75-.08s-4.12-10.76-.22-11.07S265,97.82,265,97.79Z" fill="#f3f7cb"/><path d="M217.16,117.44c1.8-2.74,4.25-4.52,7-4.34-1.11-7.2-4.5-14.95-8.59-16.14l-.33-.07c-.06.91-.1,1.8-.13,2.63a.9.9,0,0,1,.28,0c2.4.58,1.6,8.25.77,13.43C216.39,114.4,216.73,115.9,217.16,117.44Z" fill="#f3f7cb"/><path d="M286.24,78.19s-9.47,11.46-10.74,18.43l-.33,0c4.14.25,7.55,6.26,8.74,12.82,1.21-7.26,4.94-15.23,9.29-16.47a4.88,4.88,0,0,1,.75-.12l-.24-1.66C291.79,84.62,286.24,78.19,286.24,78.19Zm-1.16,17.32c0-.09-4.15-11.08-.38-12S285.1,95.59,285.08,95.51Z" fill="#f3f7cb"/><path d="M293.8,96.11s-8.12,10.75-9.32,17.91c3,.23,5.67,2.91,7.33,6.45.39-1.87.78-4,1.15-6.18-1-5.1-2.19-12.93.25-13.51.56-.14,1,.2,1.25.88a40.11,40.11,0,0,0-.11-5.09A5.09,5.09,0,0,1,293.8,96.11Z" fill="#f3f7cb"/><path d="M265.38,57.4c-4,.54-7.46,4.4-8.9,8.44,4.35.87,7.83,6.67,8.68,12.44.92-6,4.56-12.76,8.92-14.55C272.69,59.89,269.35,56.87,265.38,57.4Zm.27,12s-4.09-10-.39-10.43S265.65,69.41,265.65,69.38Z" fill="#f3f7cb"/><path d="M283.6,76.52c-1.4-5.47-7.05-12-7.05-12s-8.95,9.6-10.39,15.24c4.21.59,7.61,6.26,8.79,12.42C276.13,85.75,279.54,78.76,283.6,76.52Zm-8.75-6.74c3.64-.86.37,11.2.36,11.15S271.19,70.57,274.85,69.78Z" fill="#f3f7cb"/><path d="M234.11,96.17l-.69-.11c-1.18-7-9.67-19.27-9.67-19.27a45,45,0,0,0-7.67,11c-.18,1.28-.35,2.66-.49,4.08l.07,0c4.64,1.5,8.47,10.56,9.28,18.25C226,103.07,229.66,96.32,234.11,96.17Zm-10-13.59c3.78,1-.23,13-.25,13.12C223.22,89.49,220.36,81.57,224.12,82.58Z" fill="#f3f7cb"/><path d="M245.56,77c1.22-5.44,4.71-10.58,8.89-11.24-1.4-4-4.8-7.83-8.79-8.34s-7.4,2.46-8.86,6.23C241,65.25,244.43,71.3,245.56,77Zm0-18.07c3.71.38.34,10.45.34,10.46S241.82,58.5,245.53,59Z" fill="#f3f7cb"/><path d="M255.53,64.31c.93-4.34,6.52-6.74,9.36-8.36,2.19-1.43,7.33-6.32,6.39-6.34-2.54,0-12.66,6.7-15.77,7.76-1.39.48-14.37-8.55-16.76-8.29C242.61,50.54,254.75,60.35,255.53,64.31Z" fill="#f3f7cb"/><path d="M224.38,75.25a6,6,0,0,1,.84.35,34.74,34.74,0,0,0-2.83-8.28c.48-.66,1-1.28,1.47-1.88a33.43,33.43,0,0,1,2.38,8.86c1-6,4.57-11.32,9-11a20.9,20.9,0,0,0-2.24-4.9q.81-.39,1.65-.75a19.35,19.35,0,0,1,1.41,3.8,10.71,10.71,0,0,1,3.64-5.32c-2.51.36-7,2.24-9.81,3.31-3.1,1.17-8,8.12-9.21,10.27-1,1.71-1.39,5.48-1.52,7A5.12,5.12,0,0,1,224.38,75.25Zm3.4-13.58a34.45,34.45,0,0,1-.94,3.52s-.28-.9-.62-2.2C226.73,62.53,227.25,62.08,227.78,61.67Z" fill="#f3f7cb"/><path d="M274.88,61.48a17.9,17.9,0,0,1,1.1-3.12c.5.26,1,.53,1.49.82a21.2,21.2,0,0,0-1.8,4.15c4.13-.44,7.51,4.34,8.68,10a34,34,0,0,1,1.36-5.27c-2.44-4.22-5.29-8.63-6.83-9.65-2.37-1.57-6-1.74-6.86-1.75A10.89,10.89,0,0,1,274.88,61.48Z" fill="#f3f7cb"/><path d="M244.13,141.57a9.19,9.19,0,0,0-2.79.4c-1.05-.32-2.08-.68-3.1-1.08a10.89,10.89,0,0,1,4.87-1.67c-2.42-4.38-8.75-9.64-8.75-9.64a49,49,0,0,0-6.12,5.44c-.57-.47-1.12-1-1.66-1.48,1.68-2.68,4.13-4.72,6.91-5.08-1.18-5.35-9.34-14.38-9.34-14.38a62.78,62.78,0,0,0-6.07,6.38,46.82,46.82,0,0,0,4.24,9.31A31.57,31.57,0,0,0,238.81,143s4.8.31,10.87.45A10.07,10.07,0,0,0,244.13,141.57Zm-19.49-13-.43-.38c-.83-2.39-3-9.63.13-9.38C227.61,119.09,225.28,126.68,224.64,128.61ZM236,139.92c-.93-.43-1.85-.91-2.74-1.42-.47-2.7-.46-5.28,1.34-5.23C236.7,133.33,236.54,136.83,236,139.92Z" fill="#f3f7cb"/><path d="M262.79,139.39c-2.39-4.27-8.49-9.16-8.49-9.16s-6.16,4.84-8.55,9.1a11.88,11.88,0,0,1,7,4.14h1.45c-.95-2.82-2.95-9.71.06-9.71s1.46,6.89.7,9.72h1.53A12,12,0,0,1,262.79,139.39Z" fill="#f3f7cb"/><path d="M285.17,75.94c2.13-.47,4.09.68,5.69,2.78a26.14,26.14,0,0,0-1-2.92c-.5-1.1-1.59-3.21-2.92-5.6A36.14,36.14,0,0,0,285.17,75.94Z" fill="#f3f7cb"/><path d="M290.76,123.05c-1.79-3.29-6.48-8-6.48-8s-8.71,8.51-10,13.75h.14c3.35-.11,6.32,2.26,8.2,5.46-.54.49-1.1,1-1.66,1.41a73.48,73.48,0,0,0-6.92-6.69s-5.59,5.63-8,10.1a10.84,10.84,0,0,1,5.42,2c-1,.37-1.94.7-2.93,1a9.39,9.39,0,0,0-3.22-.6,10.09,10.09,0,0,0-5.91,2,63,63,0,0,0,11.48-1c8.67-2,18.08-12.31,19.29-15.45a49.25,49.25,0,0,0,1.63-6.38C291.47,121.43,291.13,122.26,290.76,123.05ZM276,139c-.86.47-1.74.9-2.64,1.3-.75-3.07-1.14-6.54,1-6.61C276.14,133.62,276.29,136.26,276,139Zm7.81-9.54s-4.2-9.77-.46-10S283.79,129.49,283.78,129.45Z" fill="#f3f7cb"/><path d="M283.37,114c-1.28-6.9-8.47-15.79-8.47-15.79s-8.55,10.49-9.83,17.18c4.12.6,7.49,5.25,8.64,10.11C275,120.21,278.84,114.6,283.37,114Zm-9.21-10.21c3.72-.45.36,10.32.36,10.27S270.44,104.24,274.16,103.83Z" fill="#f3f7cb"/><path d="M264.35,139.13h0c.92-4.44,4.45-9.19,8.78-10.14-1.23-5.22-8.95-12.55-8.95-12.55S256,124,254.67,129.07C259.47,129.3,263.41,134.34,264.35,139.13Zm-.52-18.89c3.77-.11.35,9.56.34,9.54S260.05,120.33,263.83,120.24Z" fill="#f3f7cb"/><path d="M268,32.05c1.33-1.21,3.17-2.92,5.26-4.9A184.34,184.34,0,0,1,291.34,15.9c-2.47,3-7.31,6.85-14.1,11.12l-2,1.23C272.61,29.47,270.16,30.75,268,32.05Z" fill="#f3f7cb"/><path d="M268.13,28.93c.52-1.49,1.19-3.37,2-5.5h0c1.07-1.61,2.05-3.12,2.68-4.11,2.12-1.94,5-4.31,8.6-7,3.42-2.59,6.73-4.94,8.74-6.35A41.09,41.09,0,0,1,286.05,11C281.07,16.74,272.9,24.49,268.13,28.93Z" fill="#f3f7cb"/><path d="M266.75,48.5c2.54-3,4.92-5.65,7.26-8.08l.58-.61c2.43-2.54,4.73-5,8-6.34l.85-.37a15.77,15.77,0,0,1,5.69-1.68h.17a22.65,22.65,0,0,1-3.34,7c-2.23,3-5.87,4.31-9.38,5.54-1.23.43-2.49.88-3.68,1.39A58.71,58.71,0,0,0,266.75,48.5Z" fill="#f3f7cb"/><path d="M241.15,20.67c-1.29-1.08-2.62-2.11-4-3.08l-.83-.79c-1.26-2.23-5.41-9.48-8.74-14.15a47.57,47.57,0,0,1,6.56,4.44C236,10.71,238.32,15.28,241.15,20.67Z" fill="#f3f7cb"/><path d="M239.33,43.53a76.53,76.53,0,0,1-15.78-11.35,73.88,73.88,0,0,1,13.36,4.72l.35.25c.11.62.22,1.24.31,1.85A19.59,19.59,0,0,0,239.33,43.53Z" fill="#f3f7cb"/><path d="M236.66,34.06c-4.33-3.12-11.17-8-15.35-11,6.46,1.61,11.67,4,15.51,7.22a22.33,22.33,0,0,0,1,2.07l-.51-.17a.83.83,0,0,0-.22,0,.69.69,0,0,0-.51.22.6.6,0,0,0-.13.51l.17.77C236.59,33.74,236.62,33.86,236.66,34.06Z" fill="#f3f7cb"/><path d="M247.47,26.64c-.48-.5-1-1-1.46-1.51C243.64,20.64,235.91,6,233.23,0a53.05,53.05,0,0,1,8,4.47v0a.35.35,0,0,0,.14.25l.22.17c3.38,2.7,9.19,8,10.23,13.13-.63,1.09-1.34,2.43-2.12,4C248.81,23.74,248,25.44,247.47,26.64Z" fill="#f3f7cb"/><path d="M242.16,24.44A39.07,39.07,0,0,0,236.41,22l-.82-.42a.66.66,0,0,0-.32-.08.64.64,0,0,0-.5.23.54.54,0,0,0-.09.12C232,19.16,228.11,15.69,225,13A65.78,65.78,0,0,1,242.16,24.44Z" fill="#f3f7cb"/><path d="M253.42,15.61c-1.48-3.78-4.86-7.81-10-12L241.93-8.56a30.6,30.6,0,0,1,3,2.92,38,38,0,0,1,8.11,14.88l.34,1.18a.64.64,0,0,0,.63.45.66.66,0,0,0,.6-.36l.55-1.1A13.71,13.71,0,0,0,256,6.8c1-3.86,2.76-11,11.44-15.23L263.5,4.87A54.14,54.14,0,0,0,259.59,10c-1.22,1.76-2.35,3.5-3.12,4.7a1.85,1.85,0,0,0-.91-.37h-.14C254.75,14.31,254.16,14.69,253.42,15.61Z" fill="#f3f7cb"/><path d="M270.13,19.37c-.11-1.49-.27-3.52-.49-5.59-.08-.82-.17-1.59-.26-2.29-.13-1.27-.25-2.24-.36-2.88,5.06-3.88,9.82-7.28,11.94-8.54C280.24,2.59,276.71,9.31,270.13,19.37Z" fill="#f3f7cb"/><path d="M265.42,29.83c-.77-1.88-1.82-4.1-3-6.31a51.38,51.38,0,0,0-4.37-7.19c2.7-4.29,6.27-9.4,7.88-10.86.91,2.32,1.76,10.34,2.13,17l-.16.45C267.46,24.14,266.3,27.33,265.42,29.83Z" fill="#f3f7cb"/><path d="M256.82,41a29.08,29.08,0,0,0-2.48-5.2,30,30,0,0,0-5.52-6.69c2.26-5.15,5.27-11.06,6.6-12.49a41.31,41.31,0,0,1,5.16,8.16,47.41,47.41,0,0,1,4,9.43A39,39,0,0,0,256.82,41Z" fill="#f3f7cb"/><path d="M254,40.06c-2.88-2.55-9.21-5.13-12.77-6.45a16.36,16.36,0,0,1-2.81-5.42,35.2,35.2,0,0,1-1-3.6,29.83,29.83,0,0,1,14.91,12.19A26.7,26.7,0,0,1,254,40.1Z" fill="#f3f7cb"/><path d="M254.52,59.14a1.07,1.07,0,0,1-.25,0c-2.5-.46-5.09-2.19-7.38-3.72-.73-.49-1.42-1-2.1-1.37-2.13-1.3-4.25-2.64-6.29-3.93s-4.42-2.78-6.66-4.15c-1.4-.86-2.78-1.82-4.12-2.75l-1.19-.83a109.47,109.47,0,0,1,14.2,3.91l.29.52.08.15a.35.35,0,0,0,.13.14l14.52,9.35.32.17a2.62,2.62,0,0,1,.6.36c.08.31-.85,1.12-1.24,1.47a7.37,7.37,0,0,0-.55.5.76.76,0,0,1-.24.19A.22.22,0,0,1,254.52,59.14Z" fill="#f3f7cb"/><path d="M257.17,59.57a.33.33,0,0,1-.23-.07s-.12-.21.08-.79a5.33,5.33,0,0,1,2-2c1.09-.74,2.08-1.54,3-2.32a30.34,30.34,0,0,1,4.29-3.08,51.75,51.75,0,0,1,21-6.27l-.5.2-6.08,2.89c-4.76,2.28-11,5.29-17.2,8.38-.61.31-1.25.7-1.93,1.11a15.15,15.15,0,0,1-3.92,1.91A2.12,2.12,0,0,1,257.17,59.57Z" fill="#f3f7cb"/><path d="M262.11,50.61c-1.09-1.77-3-4.4-4.74-6.68,6.17-8.73,20.11-14.72,28.55-17.69a133.27,133.27,0,0,0-10.76,9.92A187.11,187.11,0,0,0,262.11,50.61Z" fill="#f3f7cb"/><path d="M242.91,45.61c-1.16-2.14-2.92-5.71-3.1-6.9s-.44-2.62-.63-3.59c3.26,1.17,10.38,3.92,13.27,6.46,1.8,1.59,6.92,8.54,8.25,11-.61.63-1.67,1.71-2.72,2.72Z" fill="#f3f7cb"/><path d="M298.76,194.1c1.15,5.64-1,11.15-5.95,16.73a24.16,24.16,0,0,0-4.37-3.77c-6.33-4.27-11.27-8.36-17-2.81s-1.32,10.22,5,14.68a19.61,19.61,0,0,0,3.78,2.11,83.38,83.38,0,0,1-15.55,7.42,19,19,0,0,0-.77-11.45c-2.93-8-5.37-14.72-14.68-11.94-9,2.7-8,10.24-5.57,19a19.51,19.51,0,0,0,4.73,8.5c-.6.08-1.21.17-1.82.24-4.73.57-9.7,1.09-14.71,1.41a17.14,17.14,0,0,0,3.46-10.08c.08-8.44-.32-15.14-13.35-14.68-12.57.38-14.24,7.47-15.08,16.31a15.56,15.56,0,0,0,1.19,7.83,57,57,0,0,1-10.2-2.41,26.7,26.7,0,0,0,2.86-7.91c1.73-8.84,2.73-16-5.69-16.73-7.78-.72-10.28,5.72-12.49,14-4.25-6.11-5.51-14.44-3-25.86,0-.11.05-.22.07-.32C219.07,195.37,259.28,195.33,298.76,194.1Z" fill="#ff5a85"/><path d="M192.82,168.11c2.21,8,4.81,14.41,12.34,9.56,7.21-4.65,5.13-11.52,2.59-19.66-.17-.54-.36-1.07-.55-1.58a49.16,49.16,0,0,1,10.63-3.28,54.85,54.85,0,0,0-.14,5.65c.3,10.29.93,18.52,7.42,17.51,6.26-1,5.87-9.08,5.1-19.19-.14-1.77-.35-3.47-.63-5.08A105,105,0,0,1,245,153.2a23,23,0,0,0-1.63,7.2c-.61,8.62-.91,15.75,8.69,17.12,9.28,1.31,10.06-5.05,10.11-12.94a23.23,23.23,0,0,0-1-6.93,90.32,90.32,0,0,1,11.82,6.1,16.69,16.69,0,0,0-2.12,7.51c-.49,7.4-.77,13.75,7.51,15.2,8,1.36,8.77-4.14,8.87-10.71a15.54,15.54,0,0,0-.06-1.68c6.93,6,12,12,13.39,18.35,0,0,0,.08,0,.12-40.2.76-81.1.53-121.17-.46a53.57,53.57,0,0,1,13-25.26Q192.64,167.47,192.82,168.11Z" fill="#ff7000"/><path d="M300,258.39l-19.89,4.36c-3.47.77-6,4.78-6,9.35,0,.45.05.91.1,1.35l3.29,25c.67,5,4.39,8.59,8.31,7.92l1.35-.23c3.76-.64,6.65-5,6.56-9.94,0-.16,0-.32,0-.49l-.62-10.81c-.21-3.6-1.17-6.82-2.45-8.19a2,2,0,0,0-1.61-.74c-1.84.17-3.11,3.77-3,8.56,0,.34,0,.68,0,1l.21,3.59c0,.59.06,1.18.06,1.74.07,3.76-.4,5.86-.7,6.29-.47-.41-1.5-3.08-2.09-7.55l-1.33-10.11a11.13,11.13,0,0,1-.09-1.15c-.07-3.87,2.09-7.27,5-7.91l7.13-1.57a4.14,4.14,0,0,1,4,1.2,7.27,7.27,0,0,1,1.85,5l-.06,26.14c0,4.36-2.73,8.14-6.06,8.42l-5.1.44a28.12,28.12,0,0,1-12.46-2.39c-2.95-1.44-5.31-5.89-5.38-10.13,0-.24,0-.48,0-.72l.87-18.64c.2-4.28-.4-10,.65-14.07,2.4-9.29,11.27-8.07,17.75-8q4.25,0,8.49-.08c7-.19,12.82-8.82,4.7-10.9-6.23-1.59-12.85,1.64-19,2-10.8.6-21.62-.47-32.45-.47-27.65,0-56.07-3.21-83.35.47-14.44,2-29-1.25-43.48.5-6,.72-12-.16-18.11-.16-2.31,0-11.75-1.72-13.59,0-2.78,2.63-5.94,5.72-5.84,9.51L89,311.78c.13,5.11,3.45,9.19,7.4,9.09L148,319.51c3.93-.1,7.34-4.31,7.59-9.39l1.72-33.86c0-.28,0-.55,0-.82-.08-4.76-3-8.72-6.7-9l-41.81-3.24c-3.92-.3-7.64,3.53-8.28,8.54L98.28,289a12.46,12.46,0,0,0-.09,1.73c.07,4.45,2.59,8.22,6,9l29.26,6.4c3.89.85,7.77-2.51,8.63-7.49l1.16-6.62a12.06,12.06,0,0,0,.17-2.15c-.07-4.15-2.52-7.38-5.82-7.68l-12-1.1c-2.73-.25-5.22.45-6.5,1.84a3.2,3.2,0,0,0-.91,2.05v.22c0,2.48,3,4.62,6.92,5l5.11.46c3.21.3,5.4,1.93,5.42,3.26a1.06,1.06,0,0,1,0,.25c-.25,1.47-3,2.56-6.5,1.79L111.18,292c-2.85-.63-5-3.82-5-7.59a10.27,10.27,0,0,1,.08-1.47l.37-2.89c.56-4.31,3.73-7.6,7.08-7.34l30.55,2.36c3.08.24,5.56,3.59,5.63,7.62,0,.23,0,.46,0,.69l-1,19.12c-.23,4.36-3.13,8-6.47,8.06-8.54.22-17.24-.11-25.74.68-10.23.95-19.65-3.1-21.35-15.64-1.3-9.62-3.57-27.82,4-35s19.39-2.49,28.33-2.15c9.11.36,20.88-1.48,29.69,1.21,13.5,4.1,5.71,37.81,5.22,48.89,0,.63,0,1.25,0,1.86.05,3.23.66,6.53,1.88,7.95l4.5-.12c.71-.85,1.11-2.29,1.2-4.41l1.2-24.68a164.36,164.36,0,0,0,.18-17.61c-.59-10.37,8.92-18.34,12-4.15,1.49,6.81,1.13,11.34.55,18.2l-1.89,22.49c0,.4,0,.8,0,1.2.08,4.64,2.84,8.47,6.42,8.9l27.33,1.79c3.68.45,11.35,1.07,14.94,0l7.53-1.11c3.65-1.12,6.44-5.83,6.36-10.73l0-.54-2.12-34.64c-.31-5.1-3.77-9.06-7.71-8.82L204,265.91c-3.93.23-7.18,4.57-7.24,9.67l-.3,23.91v.36a9.73,9.73,0,0,0,2.24,6.31,5.78,5.78,0,0,0,4.85,2.12l18.1-1.38c3.9-.29,7.42-4.63,7.85-9.66l.85-10a9.53,9.53,0,0,0,0-1.19,8.63,8.63,0,0,0-2-5.64,5.25,5.25,0,0,0-4.53-1.82l-8.12.8c-4,.39-6.93,2.58-6.88,5.1v.14a3.3,3.3,0,0,0,.92,2c1.29,1.38,3.79,2.07,6.51,1.8l1-.1a5.37,5.37,0,0,1,4.57,1.52,3.62,3.62,0,0,1,.92,2.35c0,.13,0,.27,0,.41-.24,2.77-3.23,5.32-6.53,5.58l-6.75.51a4.81,4.81,0,0,1-4-1.75,8.2,8.2,0,0,1-1.86-5.29v-.31l.1-8.41c.05-4.35,2.81-8.06,6.15-8.26l19.59-1.17c3.33-.2,6.25,3.17,6.51,7.5l1.27,20.66c0,.16,0,.31,0,.47.07,4.25-2.34,8.34-5.48,9.31l-.28.08a36.72,36.72,0,0,1-12.8,1.15l-23.51-2.87c-3-.36-5.31-3.59-5.37-7.51a8.69,8.69,0,0,1,0-1l2.72-32.46c.37-4.37,3.4-8.12,6.77-8.36l45.39-3.29a4.91,4.91,0,0,1,4.07,1.8,8.46,8.46,0,0,1,1.91,5.41q0,11.42,0,22.84c0,3-1.56,31,4.91,25.59,4.71-3.92,2.16-22.55,2.15-28.09,0-6.57.33-13.28,0-19.85-.14-2.67-1.53-6.35,1.45-7.33,2.36-.78,5.18,2.87,6,5,1.51,4.08-.09,11.07-.3,15.5q-.56,12-1.12,24c0,.28,0,.56,0,.84.08,4.85-1.35,10.95,2.07,12.62L271,318c3.47,1.7,13.39,1.66,17.09,1.34l11.88-1c3.92-.34,7.13-4.75,7.14-9.85L307.2,266a8.87,8.87,0,0,0-2.26-6.12A5.14,5.14,0,0,0,300,258.39Z" fill="#020000"/><path d="M83.48,181.42,83,167.59q-.21-6.17-.43-12.33c-.12-3.38-2.64-6-5.63-5.91L35.64,151c-3,.12-5.35,3-5.29,6.35L30.76,178c.06,3.37,2.53,6.2,5.51,6.32l25.95,1a7.93,7.93,0,0,0,7.19-4.6,22.32,22.32,0,0,0,1.17-7.94,19.19,19.19,0,0,0-.19-2.42l-.59-3.8c-.5-3.28-3.3-6.08-6.24-6.23l-16.67-.89a4.62,4.62,0,0,0-3.61,1.45,5.89,5.89,0,0,0-1.51,4.18,2.26,2.26,0,0,0,0,.26L42,169c.19,3.36,2.77,6.12,5.74,6.16l3.64,0a6.75,6.75,0,0,0,4.84-1.54,2.06,2.06,0,0,0,.6-1.44c0-1.66-2.29-3-5.14-3-2.48,0-4.38-1-4.43-1.91a.68.68,0,0,1,.23-.5c.54-.57,2-1.1,4.16-1l8.11.43A5.78,5.78,0,0,1,65,170.75a22.39,22.39,0,0,1,.24,2.91,11.87,11.87,0,0,1-.39,3.79c-.37.93-2.71,1.89-5.47,1.78l-18.74-.74c-2.52-.1-4.62-2.52-4.67-5.39l-.22-10.84c-.05-2.87,1.94-5.28,4.45-5.39l32.46-1.33A4.25,4.25,0,0,1,76,156.93a5.52,5.52,0,0,1,1.47,3.62l.74,21.3c.06,2.91-1.25,6.08-2.91,7.06a13.87,13.87,0,0,1-3.94,1.35h-17c-7.67-.25-28.48,2.93-30.41-7.45-.66-3.55.07-7.37-.23-11-.29-3.46-1-6.47-.95-10.23,0-3,1.53-8.57-.3-11.12a4.38,4.38,0,0,0-5.94-.74,4.46,4.46,0,0,0-1.2,1.88c-1.73,4.69,0,14.48.14,18,.11,4.26.74,8.85.34,13.09-.37,4-5,6.18-6.66,1.81-1.26-3.25-.24-8.7-.25-12.16q0-9.18,0-18.35c-.06-3.32-2.5-6-5.43-6l-17.37,0v6l12.92,0c2.46,0,4.5,2.3,4.56,5.1-.21,7.93-.39,15.86-.62,23.79-.28,10.23-8.9,9.52-16.86,9.34v6c15.8-.86,28.74-2.76,46.41-1.69,6.56.4,14.77,0,21.54,0,9.86.06,17.23.74,27,.7C84.17,193.64,83.61,185.23,83.48,181.42Z" fill="#020000"/><path d="M42.22,3.81c-.16-.11-5.44-1.59-7.48-2.31A69.27,69.27,0,0,1,23.88-1.22c-6.65-2.27-14.15-4.43-18.37-10a21.13,21.13,0,0,1-3.74-8.28H-3C-2.76-14.67-.49,4.33-3,6.28a16.19,16.19,0,0,1,1.42-1C3.77,2.06,10.88,1.36,17.2,2.51a29.38,29.38,0,0,1,16.08,8.8,32.58,32.58,0,0,1,7.12,12.8,24.29,24.29,0,0,1,.91,4.17c.14,1.54-.07,2.93-1.25,3.13-2.73.47-4.14-6.8-4.75-8.26-1.78-4.3-5.25-9.59-10-11.83-7-3.35-11.52-4.58-19-3.1A16.39,16.39,0,0,0-3,13.31V33.19c0-.17,0-.34.08-.51,1-5.38,1.7-12,5.38-16.37,5.41-6.35,16.38-5.17,22.84-1,7.23,4.65,7.81,13,10,20.38,4.83-.18,7.89-.08,9.22-1.06V13.36C44.49,10.21,45.35,6,42.22,3.81Z" fill="#ff5a85"/><path d="M58.77,15.87A33.94,33.94,0,0,1,76.69,3,22.21,22.21,0,0,1,92.75,4.33a26,26,0,0,1,6.4,5.13v-29H90.23A17.56,17.56,0,0,1,88.56-16c-2,3.29-5.07,5.63-8,8.13s-6.24,3.1-9.62,4.78C67.11-1.17,57.94,2.7,53.74.66c-.84-.41-1.87-1.1-1.61-2.19.34-1.41,4.81-.92,6.45-1.24a36.33,36.33,0,0,0,16.23-7.35c3.52-2.87,6.52-5.8,8.22-9.39H78.66c-3.77,7-12.76,11.12-21.2,13.38a42.4,42.4,0,0,1-17.2.62c-6.82-1-15.29-1.79-20.8-5.9a17.85,17.85,0,0,1-6-8.1H9.11v0c2.17,8.53,9,11.91,17.19,14.58A68.72,68.72,0,0,0,41.24-1.61v.33c2,.15,4.28.5,5.44,1.64a8.33,8.33,0,0,1,1.83,3.2c2.19,6,1.82,12.19,1.82,18.47V34.28C52.76,35.62,55.94,36,61,35.92c.23-10.4,6.19-22.76,18.47-23.67,11.2-.83,16.2,7.58,18.84,16.72a26.19,26.19,0,0,1,.85,4.63V16.27c-.31-.34-.62-.69-1-1-4.58-4.75-9.33-8.36-17.13-7.7-7.47.63-13.11,3.61-17.35,8.79a39.43,39.43,0,0,0-5.21,9c-.79,1.7-.48,5.56-2.67,6.61-1.48.7-2.23-1.14-2.49-2.07-.44-1.55.11-3.06.59-4.57A33.6,33.6,0,0,1,58.77,15.87Z" fill="#ff5a85"/><path d="M75.69,42.2c-.4-1-.36-2.26-1.6-2.71-2.5-.9-6.61-.61-9.51-.3,2.11,7.49,2.71,16,11.41,19.16,3.77,1.39,8.65,1.84,12.24-.25,2.87-1.66,4.49-4.6,5.64-7.41,1.07-2.59,2.27-5.39,2.39-8.17.36-8.83-.75-21.37-9.43-25.19a14.7,14.7,0,0,0-17.36,4.5,26.14,26.14,0,0,0-4.4,14,75,75,0,0,0,9.74-.45c2.36-5.35,3.6-7,8.58-4.91,3.74,1.57,3.85,8.51,2.06,11.71C83.27,46.12,77.34,46.31,75.69,42.2Zm13.24-8.08c-.63-4.47-4-9.54-9.6-8-2.52.67-4.11,2.74-5.37,4.78-.51.83-2,5.67-3.19,3.1a8.55,8.55,0,0,1-.22-4.49c.77-4.57,7.18-7.56,11.64-7.12,6.58.64,10,6.23,10.61,12,.62,6-1.24,15.1-7.43,18.22s-15.4-1-16-7.68a8.79,8.79,0,0,1,0-1.26c.18-2.65,1.76-1.06,2.8.23,1.52,1.89,2.65,4,4.74,5.39,3.34,2.26,7.5.34,9.43-2.62A18.64,18.64,0,0,0,88.93,34.12Z" fill="#ff5a85"/><path d="M20.05,33c.4,1,.36,2.26,1.59,2.71,2.5.9,6.61.61,9.52.3-2.12-7.49-2.71-16-11.41-19.16C16,15.48,11.1,15,7.51,17.12,4.64,18.78,3,21.72,1.86,24.53.8,27.12-.41,29.92-.52,32.7c-.37,8.83.75,21.37,9.43,25.19a14.71,14.71,0,0,0,17.36-4.5,26.14,26.14,0,0,0,4.4-14,75.29,75.29,0,0,0-9.75.45c-2.35,5.35-3.59,7-8.58,4.91C8.6,43.16,8.49,36.22,10.28,33,12.47,29.1,18.4,28.91,20.05,33ZM6.8,41.1c.63,4.47,4,9.54,9.61,8,2.51-.67,4.11-2.74,5.36-4.77.52-.84,2-5.68,3.2-3.11a8.76,8.76,0,0,1,.22,4.49c-.77,4.57-7.19,7.56-11.65,7.12-6.57-.64-10-6.23-10.6-12-.63-6,1.23-15.11,7.42-18.23s15.41,1,16,7.68a7.54,7.54,0,0,1,0,1.26c-.17,2.66-1.75,1.06-2.79-.23-1.52-1.89-2.65-4-4.75-5.39-3.33-2.26-7.49-.34-9.42,2.62A18.67,18.67,0,0,0,6.8,41.1Z" fill="#ff5a85"/><path d="M53.46,95.57c5,2.43,5.3,9.15.11,11.07-1.26.46-2.86.43-3.41,1.84-1.11,2.85-.69,7.5-.27,10.79C59.35,116.78,70.08,116,74,106.11c1.71-4.29,2.22-9.83-.46-13.87-2.14-3.24-5.89-5-9.46-6.32-3.29-1.17-6.85-2.51-10.38-2.6-11.19-.31-27.06,1.1-31.79,11a15.59,15.59,0,0,0,5.9,19.62c4.94,3.14,11.76,4.72,17.81,4.83-.11-3.44-.07-8.17-.68-11.05-6.81-2.61-8.92-4-6.32-9.66C40.59,93.79,49.38,93.58,53.46,95.57Zm-20.35,7.14c.88,2.84,3.52,4.63,6.11,6,1.07.57,7.22,2.18,4,3.59-1.52.66-4.07.53-5.68.3-5.8-.82-9.66-8.06-9.17-13.12.74-7.46,7.79-11.42,15.05-12.16,7.61-.78,19.16,1.22,23.18,8.2,3.92,6.81-1,17.47-9.54,18.28a12,12,0,0,1-1.59,0c-3.37-.17-1.37-2,.25-3.17,2.38-1.74,5-3.05,6.78-5.44,2.82-3.81.34-8.51-3.43-10.66a26,26,0,0,0-15.87-2.86C37.52,92.49,31.14,96.34,33.11,102.71Z" fill="#ff5a85"/><path d="M96.52,69.92c-5.28,3.25-12.26,3.94-18.46,2.79a28.65,28.65,0,0,1-15.78-8.8,32.82,32.82,0,0,1-7-12.8,24.48,24.48,0,0,1-.9-4.17c-.14-1.54.07-2.93,1.23-3.13,2.68-.47,4.06,6.8,4.66,8.26,1.75,4.3,5.15,9.59,9.77,11.83C77,67.25,81.36,68.49,88.71,67a16,16,0,0,0,10.44-6.62V39.16c-.1,1.13-.26,2.26-.46,3.38-1,5.38-1.69,12.06-5.37,16.37-5.41,6.35-16.39,5.17-22.84,1-7.24-4.65-7.81-13-10-20.38-5.43.19-9.06-.08-10.14,1.29V64.39c0,2.26-.32,6.22,2.27,7.42A41.85,41.85,0,0,0,58,73.34a68.57,68.57,0,0,1,12.1,2.92c6.65,2.27,14.15,4.43,18.37,10s5.13,12.84,3.74,19.37a29.22,29.22,0,0,1-11,16.7,44.74,44.74,0,0,1-16.14,7.48,35.46,35.46,0,0,1-5.28,1c-1.95.16-3.71,0-4-1.25-.62-2.82,8.58-4.36,10.42-5,5.42-1.89,12.08-5.53,14.87-10.41,4.18-7.31,5.69-11.94,3.73-19.64-2.16-8.53-9-11.91-17.19-14.58S51.56,75.77,43,76.72c-9.31,1-16.49,2.44-23.85,8.44-6,4.87-10.49,9.9-9.57,18.1.89,7.85,4.72,13.74,11.32,18.14a53.69,53.69,0,0,0,11.42,5.37c2.15.8,7,.43,8.4,2.73.91,1.54-1.42,2.35-2.59,2.64-2,.48-3.89-.08-5.8-.57a46.25,46.25,0,0,1-11.94-5c-7.35-4.35-13.72-10.8-16.48-18.69A19.74,19.74,0,0,1,5.43,91c2-3.29,5.07-5.63,8-8.13s6.24-3.1,9.62-4.78a51.14,51.14,0,0,1,16.78-4.78c.68-.5,2.08-.8,2.52-1.12,2.88-2.1,2.11-6.08,2.11-9.06V40.6c-2.32-1.15-5.09-1.37-9.74-1.31C34.52,49.7,28.56,62.06,16.27,63,5.07,63.8.07,55.39-2.56,46.26c-.19-.68-.35-1.35-.48-2v16c4.58,4.61,9.39,8.07,17.18,7.42,7.62-.63,13.36-3.61,17.69-8.78a40.13,40.13,0,0,0,5.31-9c.8-1.69.48-5.56,2.72-6.61,1.5-.7,2.26,1.14,2.53,2.07.45,1.55-.11,3.06-.6,4.57a33.36,33.36,0,0,1-4.93,9.38A34.58,34.58,0,0,1,18.6,72.2,23,23,0,0,1,2.23,70.89,22.64,22.64,0,0,1-3,67V99.67C-3,108-6.67,135,4.75,137.35c7.55,1.58,15.12-.74,22.68-.7,5.92,0,11.85,0,17.77,0a83.28,83.28,0,0,0,.59-13.27c-13.18-.14-28.9-6.75-30.2-20.66C14.41,90,25,84.26,36.54,81.17a42.35,42.35,0,0,1,17.19-.62c6.82,1,15.29,1.79,20.8,5.9,8.11,6.06,6.75,18.52,1.58,25.89-5.81,8.26-16.41,9-25.71,11.59.2,4.15.18,9.14.54,12.72h23.6c8.6,0,22.8,4.34,24.57-6.83.84-5.26,0-11.19,0-16.48V67.87A14.92,14.92,0,0,1,96.52,69.92Z" fill="#ff5a85"/><path d="M-14,246.41c6.33-.16,13.15,4.4,13.8,11.16a10.9,10.9,0,0,1,0,1.62c-.17,3.45-2.05,1.41-3.29-.26-1.82-2.43-3.18-5.11-5.67-6.93A6.21,6.21,0,0,0-14,250.87v6.46a5.67,5.67,0,0,1,6.33,3.77c.49,1.29.46,2.93,1.92,3.49,3,1.14,7.8.71,11.22.28-2.59-9.69-3.39-20.65-13.68-24.7A21.31,21.31,0,0,0-14,238.79Z" fill="#f3f7cb"/><path d="M-14,277.29v5.11a8.35,8.35,0,0,0,2.24-.36c3-.91,4.82-3.6,6.27-6.26.59-1.09,2.26-7.38,3.73-4,.69,1.55.55,4.15.32,5.8-.8,5.55-7.4,9.35-12.56,9.42v7.95A16.52,16.52,0,0,0-.1,287.43c3.26-5.06,4.9-12,5-18.22-3.58.11-8.5.07-11.49.69C-8.83,275.71-10.21,278.16-14,277.29Z" fill="#f3f7cb"/><path d="M23.53,287.85c0-6.06,0-12.12,0-18.18a87.67,87.67,0,0,0-13.81-.6c-.15,13.48-7,29.56-21.49,30.89a21.59,21.59,0,0,1-2.25.09v6.13a19.38,19.38,0,0,0,2.82-.1c8.16-.91,14.29-4.83,18.86-11.58a54.31,54.31,0,0,0,5.59-11.68c.83-2.21.45-7.21,2.83-8.6,1.61-.93,2.45,1.45,2.75,2.65.5,2-.08,4-.59,5.93A47.09,47.09,0,0,1,13.07,295c-4.52,7.52-11.23,14-19.43,16.86A22.86,22.86,0,0,1-14,313.13V319c9.52.22,35.88,3.33,38.27-8C25.89,303.32,23.48,295.58,23.53,287.85Z" fill="#f3f7cb"/><path d="M-14,221a28.4,28.4,0,0,1,5.3.6A30.41,30.41,0,0,1,8.64,232.79a45.23,45.23,0,0,1,7.78,16.51,36.92,36.92,0,0,1,1,5.4c.17,2,0,3.79-1.3,4.07-2.93.63-4.53-8.77-5.2-10.66C9,242.56,5.21,235.74.13,232.89c-5.41-3-9.41-4.69-14.15-4.67v5.6a25.18,25.18,0,0,1,12.26,4.23c8.59,5.93,9.37,16.78,12,26.29,4.32-.19,9.51-.17,13.24-.55V239.65c0-8.8,4.51-23.33-7.11-25.15-5.47-.85-11.63,0-17.14,0H-14Z" fill="#f3f7cb"/><path d="M158.49,193.89c-4.66.44-9.26,1.31-13.88,2-3.66.57-7.23.63-11.78,1.3a45.5,45.5,0,0,0,4.38,4.4c1.78,1.7,4,2.6,6,4a18.05,18.05,0,0,0,15.69,2.16c2-.68-.74,6-2.71,6.63-5.77,2-8.7-.93-14.37-4.7a51.11,51.11,0,0,1-6.89-5.6c-1.06-1-2.16-2-3.19-3.08,3.75,7.1,5.27,11.72,8.48,15.93,4,5.27,8.5,14.31,12.84,10.87,4-3.18,11.91-14.31,14.45-18.19.93-1.42,4.53-8.46,1.12-13.44C167,193.76,162.09,193.55,158.49,193.89Z" fill="#ff7000"/><path d="M140.78,185.07a38.21,38.21,0,0,0,4.08-6.28,25.66,25.66,0,0,0,1.95-7.46c.32-2.2,5.2.07,4.54,2.16-2,6.33-3.71,10.34-8.73,14.58-2.35,2-5.38,5-8,6.71a104.78,104.78,0,0,0,15.62-2.85c6.65-1.77,16.57-6.11,15.2-12.27-1.28-5.71-8.87-12.33-11.43-16.81-.94-1.64-3-8.52-9.12-7.26-3,.62-4.47,3.89-5.68,7.83s-1.4,8-2.73,11.89c-1.88,5.52-4.33,11.07-6,18.12C134.7,192.24,138.15,188.54,140.78,185.07Z" fill="#ff7000"/><path d="M132.74,210a87.63,87.63,0,0,0-3.64-9.8c-2.28,9.4-1.13,19.46-8,26.24-1.52,1.5-8.09-1.27-6.56-2.78,6.16-6.09,9.87-15.11,11.92-23.55-7.28,6.14-26.54,21.71-21.92,26.58,3.37,3.55,12.35,7,16.2,9.08,1.41.77,8.26,3.63,12.46,0,3.08-2.64,3.09-11.13,2.31-14.47C134.61,217.45,133.77,213.81,132.74,210Z" fill="#ff7000"/><path d="M92.1,215.24c2.56,1.18,6.88-1.33,9.83-3.59s7.54-4.85,10.69-6.76c3.76-2.27,8.59-3.89,11.63-5.94-3.21.7-7.78,2-11.13,1.92-5.56-.19-12.09.88-17.26-1.46-1.88-.85-.11-5.87,1.8-5,4.93,2.23,10.15,2.82,15.46,3a37.07,37.07,0,0,0,12.07-1.57c-7.59-3-12.11-8-17.24-10-5.94-2.35-17.22-8.21-19.36-2.88-2,4.95-1.43,15.33-1.8,20.07C86.65,204.77,86.83,212.81,92.1,215.24Z" fill="#ff7000"/><path d="M102.31,176c3.27,2.36,9.46,6.47,13.31,9.71,3.37,2.84,5.85,6,11.23,9.16-.37-10.63-5.88-22.12-15.16-25.51-2-.72,2.24-5.36,4-4.17,7.34,5,11.25,13.38,13.41,22.47.79-6.16,1.64-10.61,1.86-15.78.33-7.85,1.63-17.86-4.6-18-5.78-.17-13.91,5.55-18.92,7.15-1.83.59-9,1-9.61,8.09C97.51,172.5,99,173.54,102.31,176Z" fill="#ff7000"/><path d="M125.1,195.88c0-3.62-.41-4.77,2.94-4.77s7.34,1.54,7.34,5.16-2.89,4.77-6.24,4.77S125.1,199.5,125.1,195.88Z" fill="#f3f7cb"/><path d="M177,46.25c.57-8.51-4.54-15.39-11.4-15.37-2.67,0-4.61,1.95-7.14,2.81a22.4,22.4,0,0,1-13.65,0c-2.57-.86-4.28-2.79-7.13-2.78-6.87,0-12,6.92-11.42,15.42s6.11,15.39,12.4,15.37c2.45,0,4.21-2,6.54-2.81a19.91,19.91,0,0,1,12.85,0,12.83,12.83,0,0,1,2.59,1.24c1.44.92,2.21,1.55,3.95,1.55C170.83,61.66,176.39,54.75,177,46.25Z" fill="#020000"/><path d="M191.47-19.51c-4,.35-16.37,2.42-24.28,6.11-3.17,1.19-6.3,1.94-8.2,1.63a62.33,62.33,0,0,0,3.62,9.16,6,6,0,0,1,5.66-6c3.06,0,14.5,2.16,14.25,5.52S170.79,3.5,167.85,3.51a4.7,4.7,0,0,1-1.8-.36A35.42,35.42,0,0,0,170.21,8c9.26,9.6,20.73,9.73,20.59,10.6.18.89-12.32,2.31-22.56-8.18a36.71,36.71,0,0,1-10.52-22.74l-.12-.09c-1.34-1.33,1.41-4.85,6.78-6.87l.65-.26h-5.39a64.71,64.71,0,0,0-4.58,5.8c.23,5.34,1.05,20.66,3.1,24.91,1.57,3.25,3.67,1.92,6.25,2.57,3.12.78,3.56,5.07,2,7.83a11.8,11.8,0,0,1-3.39,3.88,4.36,4.36,0,0,0-4-2.84c-2.52,0-4.58,2.34-4.59,5.22a2.09,2.09,0,0,0,0,.25c-.87.06-1.74.09-2.59.1h0c-.88,0-1.76,0-2.63-.09,0-.08,0-.16,0-.25,0-2.88-2.07-5.21-4.59-5.2a4.38,4.38,0,0,0-3.94,2.74,12.51,12.51,0,0,1-2.59-2.64,9,9,0,0,1-1.53-3.11c-.67-2.73.85-5.58,3.34-5.91s4.34.42,5.75-2.52c2-4.07,2.81-18.26,3.1-24.17a68.44,68.44,0,0,0-5.16-6.57h-10.5A28.8,28.8,0,0,1,139-18.2c3.37,1,5.8,2.61,6.86,4a.12.12,0,0,1,.08,0c.1,0,.19.15.24.49a1.52,1.52,0,0,1,0,1.78,37.13,37.13,0,0,1-10.54,22.35C125.44,21,113,19.64,113.12,18.75c-.13-.87,11.33-1.05,20.61-10.69a35.88,35.88,0,0,0,4.07-4.77,4.59,4.59,0,0,1-1.61.29c-2.94,0-14.79-4.25-15-7.61s11.59-4.54,14.65-4.55a5.9,5.9,0,0,1,5.63,5.81,60.27,60.27,0,0,0,3.34-8.36c-1.88.41-5-.09-8.13-1-9.69-3.65-25.48-4.53-25.67-4.11-.51-.23,5.21-2.47,12.61-3.26H108.3q.42,52.22,2.6,104.44c.06,0,13,5.87,40.79,5.81s39.21-6,39.26-6q2-52.14,2.19-104.26Zm-74.07,92c-6.69-6.57-1.34-15.81-.77-15.65.41-.16,2.23,8.18,8.18,14.1,5.81,6.11,12.29,6.19,12.27,6.74C137.25,78.2,123.94,79.11,117.4,72.44Zm35.07,15.62s-5-9.48-5.11-16.8a5.36,5.36,0,0,1,5.16-5.61,5.29,5.29,0,0,1,5.13,5.59C157.5,78,152.44,88.06,152.47,88.06Zm7.2-22.33a20.21,20.21,0,0,0-15.74,0c-2.85,1.26-5,4.18-8,4.18-7.64,0-14.66-10.23-15.68-22.89s5.2-22.95,13.89-23c3.6,0,5.8,2.87,9,4.15a23.43,23.43,0,0,0,8.6,1.57,23.6,23.6,0,0,0,8.6-1.61c3.18-1.27,5.66-4.18,9-4.19,8.69,0,14.9,10.24,13.88,22.9s-8.06,23-15.71,23c-2.12,0-3.05-.94-4.81-2.3A14.1,14.1,0,0,0,159.67,65.73Zm25.78,6.56c-6.53,6.7-19.93,5.84-19.76,5.28,0-.55,6.47-.67,12.27-6.8,5.94-5.94,7.74-14.29,8.16-14.14C186.68,56.47,192.14,65.69,185.45,72.29Z" fill="#020000"/><path d="M174,124.73c-1.12-1.62-6.83-9.8-10.12-12.88C155.48,104,145.71,101,133.26,101c-17,0-23,9.73-23.61,25.45,3.09-.11,6.47.21,9.24.3a8.45,8.45,0,0,1,4.61,1.2,3.84,3.84,0,0,1,1.5,2.64,2,2,0,0,1-.75,2,5.23,5.23,0,0,1-3.07.47c-3.53-.17-2.69.15-6.2-.19,4.17,6.12,19.34,7.81,33.39,6.44s23.49-11.58,25.45-13.87c5.81,5.23,12.21,8.51,18,13.71-2.31-4.59-4-8.51-4-13.7,0-3.33-.34-6.77.77-10a45.28,45.28,0,0,1,4.28-8.73c-3.84,2.67-9.11,8.32-12.48,11.63Zm-54.28-8.52a5.23,5.23,0,1,1,5.23,5A5.14,5.14,0,0,1,119.73,116.21Zm38.56,17.49c-.24-.23,1.94-4.73,2-11.24,0-.1,0-.21,0-.31-1.29-.27-2.75-.53-4.36-.74-.18,9.53-4.83,15.27-5,14.73-.31-.3,2.6-6.31,2.71-15-1.2-.11-2.47-.19-3.79-.24v.38c-.15,9.61-4.84,15.4-5,14.86-.31-.3,2.62-6.34,2.71-15.07v-.22c-2.08,0-4,.08-5.77.23-.22,10.52-5.34,16.84-5.53,16.26-.34-.34,2.73-6.71,3-16-4.39.56-7.16,1.35-7.34,1.17-.37-.12,2.46-1.72,7.38-2.78.08-9.14-2.68-15.55-2.33-15.84.2-.54,4.62,5.69,4.85,15.37a43.47,43.47,0,0,1,5.77-.47c-.19-7.51-2.39-12.67-2.09-12.91.17-.47,3.88,4.73,4.35,12.93,1.35,0,2.63.14,3.84.29-.14-7.67-2.4-13-2.1-13.22.18-.48,4.07,5,4.38,13.56a37.55,37.55,0,0,1,4.34,1c-.19-5.44-1.76-9.16-1.54-9.34.13-.36,3,3.64,3.25,9.92,3.23,1.19,4.86,2.43,4.54,2.51-.17.13-1.8-.42-4.52-1v.09C161.91,129.78,158.41,134.09,158.29,133.7Z" fill="#f3f7cb"/><path d="M54.13,295.45C55.92,294,65,286.73,68.41,282.53c8.71-10.73,12-23.21,12-39.1,0-21.65-10.8-29.39-28.24-30.14.13,4-.24,8.26-.33,11.8A11.91,11.91,0,0,1,50.54,231a4.12,4.12,0,0,1-2.93,1.91,2.06,2.06,0,0,1-2.25-.95,7.63,7.63,0,0,1-.52-3.92c.19-4.5-.16-3.44.21-7.91-6.79,5.32-8.66,24.69-7.14,42.62s12.84,30,15.39,32.49c-5.81,7.41-9.45,15.59-15.22,23,5.1-2.94,9.45-5.15,15.2-5.09,3.7,0,7.52-.44,11.06,1a48.51,48.51,0,0,1,9.7,5.46c-3-4.89-9.24-11.62-12.91-15.92Zm9.46-69.3c3.09,0,5.6,3,5.6,6.68s-2.51,6.68-5.6,6.68-5.6-3-5.6-6.68S60.5,226.15,63.59,226.15ZM44.18,275.37c.25-.29,5.25,2.49,12.47,2.58H57c.3-1.64.58-3.5.82-5.55-10.58-.24-16.94-6.17-16.35-6.39.34-.4,7,3.32,16.65,3.45.12-1.52.22-3.14.26-4.83H58c-10.67-.19-17.09-6.17-16.5-6.39.34-.4,7,3.34,16.73,3.45h.25c0-2.66-.09-5.13-.26-7.37-11.67-.28-18.69-6.82-18-7.06.37-.43,7.44,3.49,17.74,3.8-.62-5.62-1.5-9.14-1.3-9.38.13-.46,1.91,3.15,3.09,9.42,10.14.11,17.25-3.42,17.58-3,.59.26-6.32,5.89-17.07,6.19a60.44,60.44,0,0,1,.53,7.37C69,261.45,74.76,258.65,75,259c.51.22-5.25,5-14.36,5.55,0,1.72-.15,3.36-.31,4.9,8.51-.18,14.39-3.06,14.67-2.68.53.23-5.55,5.2-15.05,5.59a54.66,54.66,0,0,1-1.16,5.55c6-.25,10.17-2.26,10.37-2,.39.17-4,3.8-11,4.15-1.33,4.13-2.7,6.22-2.78,5.8-.15-.22.46-2.29,1.16-5.77h-.1C48.52,280,43.74,275.54,44.18,275.37Z" fill="#ff5a85"/><rect x="311.72" y="-19.51" width="209.73" height="346.15" fill="#964433"/><polygon points="521.45 -19.51 428.21 -19.51 428.11 56.11 521.45 56.11 521.45 -19.51" fill="#8c1f41"/><polygon points="521.45 119.92 322.24 123.49 319.75 301.44 521.45 301.44 521.45 119.92" fill="#8c1f41"/><path d="M521.45,149.13a3.18,3.18,0,0,0-1,.56,4.46,4.46,0,0,0-1.2,1.88c-1.73,4.69,0,14.48.14,18,.11,4.26.74,8.85.34,13.09-.37,4-5,6.18-6.66,1.81-1.26-3.25-.24-8.7-.25-12.16q0-9.18,0-18.35c-.06-3.32-2.5-6-5.43-6l-44.2-.11c-3,0-5.55,2.72-5.76,6.08l-1.19,19.87c0,.37,0,.76,0,1.17a21.35,21.35,0,0,0,2.2,9,10.61,10.61,0,0,0,7.77,4.73L493,190.1c3,.16,5.63-2.44,5.93-5.79l1.88-20.81a6.49,6.49,0,0,0,0-.76,5.78,5.78,0,0,0-4.87-5.89l-21.63-2.15c-2.92-.29-6.11,2-7.1,5.14l-1.2,3.82a9.08,9.08,0,0,0-.4,3,10.71,10.71,0,0,0,2.41,6.75l2.89,3.14a13.45,13.45,0,0,0,8.89,3.95l1.75,0c3-.07,5.73-2.81,6.19-6.11l.39-2.82a7.83,7.83,0,0,0,.07-1.08,5.76,5.76,0,0,0-4.6-5.8l-2.09-.31a6.58,6.58,0,0,0-5,.87,2,2,0,0,0-.76,1.3c0,.1,0,.2,0,.3,0,1.56,1.67,3,3.81,3.31,1.85.28,3,1.36,3,2.2a.85.85,0,0,1,0,.16c-.15,1-1.51,2-3,2s-4.34-1.53-6.07-3.41a8.94,8.94,0,0,1-2.2-5.48,4.92,4.92,0,0,1,.19-1.5c.6-1.9,3.22-3.29,5.73-3l13.69,1.37a4.85,4.85,0,0,1,4.08,5,4.61,4.61,0,0,1,0,.64l-1,10.91c-.26,2.86-2.52,5.08-5,5l-20.32-1.08c-2.84-.14-5.42-1.4-6-2.48a15.44,15.44,0,0,1-1-6c0-.63,0-1.26,0-1.84l.81-13.44c.17-2.88,2.36-5.21,4.89-5.2l35.58.09c2.46,0,4.5,2.3,4.56,5.1-.21,7.93-.39,15.86-.62,23.79-.3,10.79-9.87,9.41-18.16,9.31l-18.84-.23c-5.09.21-12.79,1.32-17-2.1-4.44-3.62-2.68-13.65-2.72-18.67q-.06-7.28-.08-14.56a3.46,3.46,0,0,0,.26-1.36c-.07-3.31-5.05-5.38-7.59-5.52l-17-.89a4.61,4.61,0,0,0-3.66,1.48,6,6,0,0,0-1.55,4.25l1.07,23.56c.14,3.35,2.66,6.23,5.62,6.43l4.07.26a4.79,4.79,0,0,0,3.77-1.48,6.17,6.17,0,0,0,1.74-4.33l.26-10a3.84,3.84,0,0,0,0-.48c-.05-2.81-1-5.67-2.58-5.7a1.6,1.6,0,0,0-1.19.57c-.91,1-1.53,3.12-1.56,5.51l-.19,4.73a7.22,7.22,0,0,1-1.39,4.61,1.18,1.18,0,0,1-.9.42c-1.08-.07-2.38-2.3-2.51-5.38l-.64-13.41a4.91,4.91,0,0,1,1.28-3.55,3.8,3.8,0,0,1,3-1.22l7.78.41c2.41.13,4.42,2.48,4.47,5.24V161q-.12,7.81-.25,15.64c-.1,5.82.86,13.74-7.42,13.93-2.94.07-7.07-1.4-9.69.18-1.81,1.09-4.17,7.93,6.25,7.23,12.51-.83,33.32.75,45.85.7,16.84-.08,29.37-2,44.1-2.35Z" fill="#020000"/><path d="M412.75,154.61a20,20,0,0,1-1.21,3.18,2.82,2.82,0,0,0,.11.55c-1.41.65-1.23,4.32-1.11,5.53.07.72.59,1.74.59,2.37,0,.86-.62,2.26-.65,3.4-.18,5.73-.76,13.59,3.13,18.35,1.89,2.31,15,.82,15.75,2.1l-2.3,7.14c-10.95-.72-36-1.81-49.13-1.11-7.45.4-16.78,0-24.47,0-11.2.06-19.58.74-30.65.7-3.72-3.6-3.08-12-2.93-15.82q.27-6.92.55-13.83.24-6.16.49-12.33a6.18,6.18,0,0,1,6.39-5.91l46.93,1.69a6.25,6.25,0,0,1,6,6.35l-.46,20.63a6.56,6.56,0,0,1-6.26,6.32l-29.49,1c-3.3.12-7-1.95-8.18-4.6a19.94,19.94,0,0,1-1.32-7.94,15.86,15.86,0,0,1,.22-2.42l.66-3.8a7.91,7.91,0,0,1,7.1-6.23l18.94-.89a5.59,5.59,0,0,1,4.09,1.45,5.47,5.47,0,0,1,1.73,4.18c0,.09,0,.17,0,.26l-.23,3.59a6.72,6.72,0,0,1-6.52,6.16l-4.14.05c-2.34,0-4.45-.56-5.5-1.54a2,2,0,0,1-.69-1.44c0-1.66,2.6-3,5.84-3,2.82,0,5-1,5.05-1.91a.7.7,0,0,0-.27-.5c-.62-.57-2.32-1.1-4.72-1l-9.22.43c-2.9.13-5.6,2.18-6,4.56a19.27,19.27,0,0,0-.28,2.91A10.08,10.08,0,0,0,341,177c.42.93,3.07,1.89,6.21,1.78l21.3-.74a5.59,5.59,0,0,0,5.31-5.39l.24-10.84a5.29,5.29,0,0,0-5.06-5.39l-36.88-1.33a5.16,5.16,0,0,0-3.7,1.39,5.21,5.21,0,0,0-1.67,3.62l-.84,21.3c-.07,2.91,1.42,6.08,3.31,7.06a17.08,17.08,0,0,0,4.47,1.35h19.35c8.72-.25,32.36,2.93,34.55-7.45.76-3.55-.07-7.37.27-11,.32-3.46,1.09-6.47,1.08-10.23,0-3-1.75-8.57.33-11.12a5.48,5.48,0,0,1,6.76-.74,4.45,4.45,0,0,1,1.36,1.88c2,4.69-.05,14.48-.16,18-.12,4.26-.84,8.85-.39,13.09.43,4,5.65,6.18,7.57,1.81,1.43-3.25.27-8.7.28-12.16q0-9.18.05-18.35c.08-3.41,3.15-6.89,6.2-4.13C412.94,151.22,413.19,152.85,412.75,154.61Z" fill="#020000"/><path d="M502.39,5.3c5.38-3.24,12.49-3.94,18.81-2.79l.25.06v-6c-4.63-1.75-9.05-4-11.94-7.78a21.13,21.13,0,0,1-3.74-8.28H501c.26,4.84,2.53,23.84,0,25.79A15,15,0,0,1,502.39,5.3Z" fill="#ff5a85"/><path d="M521.45,8.28a24,24,0,0,0-11.1-.06A16.39,16.39,0,0,0,501,13.31V33.19c0-.17.05-.34.08-.51,1-5.38,1.7-12,5.38-16.37s9.52-5.08,15-4Z" fill="#ff5a85"/><path d="M521.45,52.5a11.38,11.38,0,0,1-3.91.37c-6.57-.64-10-6.23-10.6-12-.63-6,1.23-15.11,7.42-18.23a11.08,11.08,0,0,1,7.09-.77V16.18c-3.31-.77-7.05-.74-9.94.94s-4.49,4.6-5.65,7.41c-1.06,2.59-2.27,5.39-2.38,8.17-.37,8.83.75,21.37,9.43,25.19a14.55,14.55,0,0,0,8.54.89Z" fill="#ff5a85"/><path d="M518.14,67.69a30.66,30.66,0,0,0,3.31-.47V62.84c-.39,0-.78.1-1.18.13-11.2.83-16.2-7.58-18.83-16.71-.19-.68-.35-1.35-.48-2v16C505.54,64.88,510.35,68.34,518.14,67.69Z" fill="#ff5a85"/><path d="M521.45,124.68c-6.06-4.24-11.13-10-13.51-16.77A19.74,19.74,0,0,1,509.43,91c2-3.29,5.07-5.63,8-8.13a15.71,15.71,0,0,1,4-2.39v-8a22.75,22.75,0,0,1-15.22-1.58A22.64,22.64,0,0,1,501,67V99.67c0,8.28-3.63,35.31,7.79,37.68,4.23.89,8.47.54,12.7.08Z" fill="#ff5a85"/><path d="M390.93,317.57c-3.37-5.51-4.1-12.78-2.9-19.25a29.94,29.94,0,0,1,9.15-16.46,34.16,34.16,0,0,1,13.31-7.28,24.78,24.78,0,0,1,4.34-.93c1.6-.15,3,.07,3.25,1.28.49,2.79-7.07,4.23-8.59,4.85-4.47,1.83-10,5.38-12.3,10.19-3.48,7.21-4.77,11.79-3.23,19.45a16.75,16.75,0,0,0,5.3,9.6h20.67l-.53-.08c-5.59-1-12.53-1.74-17-5.5-6.6-5.53-5.38-16.76-1.07-23.37,4.83-7.4,13.54-8,21.19-10.24-.19-4.95-.08-8.08-1.1-9.43H399.32c-3.29,0-7.71-.88-9.94,2.31-.11.17-1.65,5.57-2.4,7.66a68.94,68.94,0,0,1-2.83,11.11c-2.36,6.8-4.61,14.48-10.41,18.8s-13.35,5.24-20.15,3.82a30.44,30.44,0,0,1-17.36-11.23,45.39,45.39,0,0,1-7.78-16.51,37.2,37.2,0,0,1-1-5.4c-.17-2,0-3.8,1.31-4.07,2.92-.63,4.52,8.77,5.19,10.66,2,5.55,5.75,12.36,10.83,15.22,7.6,4.27,12.41,5.82,20.42,3.81,8.87-2.21,12.39-9.24,15.16-17.59a68.53,68.53,0,0,0,3.42-15.27h.35c.15-2,.52-4.39,1.7-5.57a8.72,8.72,0,0,1,3.33-1.87c6.28-2.24,12.68-1.86,19.2-1.86h12.75c1.39-2.48,1.74-5.74,1.7-10.91-10.82-.24-23.66-6.33-24.61-18.9-.86-11.46,7.88-16.57,17.38-19.27a26.51,26.51,0,0,1,4.82-.87h-18c-.36.31-.72.64-1.08,1-4.94,4.68-8.7,9.54-8,17.53.66,7.64,3.75,13.41,9.14,17.75a41.42,41.42,0,0,0,9.32,5.33c1.76.8,5.78.49,6.87,2.73.73,1.51-1.18,2.28-2.15,2.55-1.62.45-3.18-.11-4.75-.61a36.09,36.09,0,0,1-23.12-23.28A22.38,22.38,0,0,1,389.92,221a26.87,26.87,0,0,1,5.34-6.55H364.4c-9.71,0-34.44-4.4-41.63,3.46-2.89,3.16-4,47.78-2.36,48.1a52.94,52.94,0,0,0,9.48.57c5.58.1,5.33-4.88,6.19-9.3a43.3,43.3,0,0,1,3.61-11c3.27-6.59,8.77-11.95,16.13-12.62,13.19-1.21,20,11.68,23.23,23.49a42.72,42.72,0,0,1,.63,17.59c-1.06,7-1.85,15.65-6.13,21.28a19.34,19.34,0,0,1-25.87,4.19c-4.71-3.26-7.32-8.73-9.11-14.14-.95-2.84-1.68-5.74-2.41-8.65-.43-1.73-.54-3.93-1.92-5.2-1.65-1.54-4.85-.73-6.89-.67a64.22,64.22,0,0,0-6.94.13v20.61c0,7.2-1.18,21,5.84,25.22,6.17,3.7,11.18,1.53,17.73,1.53h20.43c3.45,0,25.39-2.75,27.54,0A17,17,0,0,1,390.93,317.57Zm-7.1-55c-1.47-.35-1-4.93-1.29-6.6a37,37,0,0,0-7.64-16.61c-5.07-6.11-10.3-10.74-18.83-9.79-8.16.9-14.29,4.82-18.86,11.58a54.79,54.79,0,0,0-5.59,11.68c-.83,2.2-.45,7.21-2.83,8.59-1.61.94-2.45-1.45-2.75-2.65-.5-2,.08-4,.59-5.93a47,47,0,0,1,5.17-12.21c4.52-7.52,11.23-14,19.43-16.86a20.82,20.82,0,0,1,17.58,1.52c3.42,2.06,5.86,5.19,8.46,8.21s3.22,6.39,5,9.84c2,3.9,6,13.28,3.87,17.58C385.68,261.79,385,262.85,383.83,262.58Z" fill="#f3f7cb"/><path d="M429.3,238.47c-1,.41-2.35.37-2.81,1.63-.94,2.56-.64,6.77-.32,9.74,7.79-2.16,16.6-2.77,19.93-11.67,1.44-3.86,1.91-8.86-.26-12.53-1.73-2.93-4.79-4.59-7.71-5.77-2.69-1.09-5.61-2.33-8.5-2.44-9.18-.38-22.22.76-26.19,9.65a14.89,14.89,0,0,0,4.68,17.76,27.52,27.52,0,0,0,14.58,4.5,74.93,74.93,0,0,0-.47-10c-5.56-2.41-7.28-3.68-5.1-8.78,1.63-3.83,8.84-3.94,12.18-2.11C433.38,230.72,433.58,236.78,429.3,238.47Zm-8.4-13.55c-4.65.65-9.92,4.07-8.36,9.83.7,2.57,2.85,4.21,5,5.49.86.52,5.9,2,3.22,3.27a9.19,9.19,0,0,1-4.66.22c-4.76-.78-7.86-7.35-7.41-11.91.66-6.73,6.48-10.24,12.45-10.85,6.25-.64,15.72,1.26,19,7.6,3.16,6.17-1,15.76-8,16.41a8.17,8.17,0,0,1-1.31,0c-2.76-.18-1.11-1.79.24-2.85,2-1.56,4.13-2.72,5.6-4.86,2.35-3.41.36-7.67-2.72-9.64A19.66,19.66,0,0,0,420.9,224.92Z" fill="#f3f7cb"/><path d="M419.76,295.4c1-.41,2.35-.36,2.81-1.63.94-2.56.64-6.76.32-9.74-7.79,2.17-16.6,2.78-19.93,11.68-1.44,3.85-1.91,8.85.26,12.52,1.73,2.94,4.79,4.6,7.71,5.78,2.69,1.08,5.61,2.32,8.5,2.44,9.18.37,22.22-.77,26.19-9.65A14.89,14.89,0,0,0,440.94,289c-4-2.88-9.61-4.35-14.58-4.51a75.09,75.09,0,0,0,.47,10c5.56,2.41,7.28,3.67,5.1,8.77-1.63,3.83-8.84,4-12.18,2.11C415.68,303.16,415.48,297.09,419.76,295.4Zm8.4,13.56c4.65-.65,9.92-4.08,8.36-9.84-.7-2.57-2.85-4.2-5-5.48-.87-.53-5.91-2-3.23-3.28a9.19,9.19,0,0,1,4.66-.22c4.76.79,7.86,7.35,7.41,11.92-.66,6.73-6.48,10.24-12.45,10.85-6.25.64-15.72-1.27-19-7.6s1-15.76,8-16.41a8.15,8.15,0,0,1,1.31,0c2.76.18,1.11,1.79-.24,2.86-2,1.55-4.13,2.71-5.6,4.85-2.35,3.41-.36,7.67,2.72,9.65A19.72,19.72,0,0,0,428.16,309Z" fill="#f3f7cb"/><path d="M484.8,261.21c2.53-5.1,9.52-5.42,11.51-.11.49,1.29.45,2.93,1.92,3.49,3,1.14,7.8.71,11.22.28-2.59-9.69-3.39-20.65-13.68-24.7-4.47-1.75-10.23-2.28-14.43.47-3.37,2.19-5.24,6-6.57,9.68-1.22,3.37-2.61,7-2.71,10.62-.32,11.45,1.15,27.69,11.43,32.53a16.38,16.38,0,0,0,20.41-6c3.26-5.06,4.9-12,5-18.22-3.58.11-8.5.07-11.49.69-2.71,7-4.15,9.13-10.05,6.47C483,274.38,482.73,265.39,484.8,261.21ZM492.22,282c3-.91,4.82-3.6,6.27-6.26.59-1.09,2.26-7.38,3.73-4,.69,1.55.55,4.15.32,5.8-.86,5.94-8.39,9.89-13.65,9.38-7.76-.75-11.88-8-12.65-15.4-.81-7.78,1.27-19.6,8.53-23.71,7.08-4,18.17,1,19,9.77a10.9,10.9,0,0,1,0,1.62c-.17,3.45-2.05,1.41-3.29-.26-1.82-2.43-3.18-5.11-5.67-6.93-4-2.89-8.84-.35-11.08,3.51a26.22,26.22,0,0,0-3,16.23C481.6,277.52,485.61,284.05,492.22,282Z" fill="#f3f7cb"/><path d="M520.16,258.77c-2.93.63-4.53-8.77-5.2-10.66-2-5.55-5.75-12.37-10.83-15.22-7.6-4.27-12.41-5.82-20.42-3.82-8.87,2.22-12.38,9.25-15.16,17.6s-4.33,16.49-3.35,25.22c1.07,9.52,2.54,16.87,8.77,24.4,5.07,6.11,10.3,10.73,18.83,9.79,8.16-.91,14.29-4.83,18.86-11.58a54.31,54.31,0,0,0,5.59-11.68c.83-2.21.45-7.21,2.83-8.6a1.19,1.19,0,0,1,1.37,0v-5.11c-2.49-.1-5.13-.11-7.73-.06-.15,13.48-7,29.56-21.49,30.89-13.19,1.21-19.19-9.62-22.4-21.43a42.55,42.55,0,0,1-.64-17.59c1.06-7,1.85-15.65,6.13-21.29,6.3-8.29,19.26-6.9,26.92-1.6,8.59,5.93,9.37,16.78,12,26.29,2.26-.1,4.76-.15,7.16-.22v-7.31C521.32,257.84,520.94,258.6,520.16,258.77Z" fill="#f3f7cb"/><path d="M446.68,220.43c6.6,5.54,5.38,16.77,1.07,23.37-4.83,7.41-13.54,8-21.2,10.25.2,5.55-.07,9.27,1.35,10.37h24.48c2.35,0,6.46.32,7.71-2.32a41.34,41.34,0,0,0,1.6-5.54,68.94,68.94,0,0,1,3-12.38c2.37-6.81,4.61-14.48,10.41-18.8s13.35-5.25,20.15-3.82a30.41,30.41,0,0,1,17.36,11.23,45.23,45.23,0,0,1,7.78,16.51,36,36,0,0,1,1,5.34V214.71c-.33-.08-.67-.15-1-.21-5.47-.85-11.63,0-17.14,0H456a15.77,15.77,0,0,1,2.13,2.69c3.37,5.4,4.1,12.54,2.9,18.89a29.23,29.23,0,0,1-9.15,16.14,34.22,34.22,0,0,1-13.31,7.14,25,25,0,0,1-4.34.92c-1.6.14-3-.07-3.25-1.25-.49-2.75,7.07-4.16,8.59-4.77,4.47-1.79,10-5.27,12.3-10,3.48-7.07,4.77-11.56,3.23-19.08a16.42,16.42,0,0,0-6.89-10.68H426.14c1.18.1,2.35.26,3.52.46C435.25,215.91,442.19,216.67,446.68,220.43Z" fill="#f3f7cb"/><path d="M521.45,285.45a47.35,47.35,0,0,1-4.38,9.57c-4.52,7.52-11.23,14-19.43,16.86a20.83,20.83,0,0,1-17.58-1.52c-3.42-2.07-5.86-5.19-8.46-8.21s-3.22-6.39-5-9.85a51.82,51.82,0,0,1-5-17.17c-.51-.69-.83-2.13-1.16-2.58-2.19-2.95-6.32-2.15-9.42-2.15H427.64c-1.2,2.37-1.43,5.2-1.36,10,10.82.24,23.67,6.33,24.62,18.9.86,11.47-7.88,16.58-17.38,19.27-.7.2-1.4.36-2.11.49h16.68c4.8-4.69,8.39-9.6,7.72-17.58-.66-7.79-3.75-13.66-9.13-18.09a41,41,0,0,0-9.33-5.43c-1.76-.82-5.78-.5-6.87-2.79-.73-1.53,1.18-2.31,2.15-2.59,1.62-.46,3.18.11,4.75.62a34.72,34.72,0,0,1,9.76,5,35.41,35.41,0,0,1,13.36,18.68A21.26,21.26,0,0,1,455.07,319h34c6.27,0,22.87,2,32.39-1.47Z" fill="#f3f7cb"/><path d="M364.07,274.45c-2.53,5.1-9.52,5.41-11.51.1-.49-1.28-.45-2.92-1.92-3.48a16.7,16.7,0,0,0-7-.89c-3.83.31-3.84,2.13-3,5.55,1.9,8.06,4.29,16.54,12.49,19.76,4.46,1.75,10.22,2.27,14.43-.47,3.36-2.19,5.24-6,6.56-9.68,1.22-3.37,2.61-7,2.71-10.62.32-11.45-1.14-27.69-11.43-32.53a16.37,16.37,0,0,0-20.41,6c-2.15,3.34-6.05,11.21-4.3,15.22a5.42,5.42,0,0,0,4.92,3.06c.77.05,5.58-.05,5.85-.75,2.71-7,4.15-9.13,10.05-6.47C365.92,261.28,366.14,270.27,364.07,274.45Zm-7.42-20.83c-3,.9-4.82,3.6-6.27,6.25-.59,1.09-2.06,4.64-4.61,3.81-1.58-.52-.64-4.82.32-6.81,2.58-5.37,8-10.8,13.24-10.29,7.76.75,12.53,10.13,13.3,17.56.81,7.79-2.21,22.47-9.47,26.59-7.08,4-17.23-3.93-18.07-12.64a10.9,10.9,0,0,1,0-1.62c.17-3.45,2.05-1.41,3.29.26,1.82,2.43,3.18,5.11,5.67,6.93,4,2.89,8.84.34,11.08-3.51a26.23,26.23,0,0,0,3-16.23C367.27,258.13,363.27,251.61,356.65,253.62Z" fill="#f3f7cb"/><path d="M485,96.37c-3.71.35-7.38,1-11.06,1.62-2.92.46-5.77.51-9.39,1a37.32,37.32,0,0,0,3.49,3.51c1.42,1.35,3.18,2.07,4.79,3.15a14.39,14.39,0,0,0,12.51,1.72c1.58-.53-.59,4.76-2.16,5.29-4.6,1.56-6.93-.74-11.46-3.74a40.32,40.32,0,0,1-5.49-4.47c-.84-.8-1.72-1.6-2.54-2.46,3,5.67,4.2,9.35,6.76,12.7,3.21,4.21,6.77,11.41,10.23,8.67,3.21-2.54,9.5-11.41,11.52-14.5.74-1.14,3.61-6.74.89-10.72C491.74,96.26,487.83,96.1,485,96.37Z" fill="#ff7000"/><path d="M470.84,89.33a29.43,29.43,0,0,0,3.26-5,20.41,20.41,0,0,0,1.55-5.94c.26-1.76,4.15,0,3.63,1.72-1.6,5-3,8.24-7,11.62A78.79,78.79,0,0,1,466,97.08a83.73,83.73,0,0,0,12.45-2.28c5.3-1.41,13.21-4.87,12.11-9.77-1-4.55-7.06-9.83-9.11-13.41-.74-1.3-2.39-6.79-7.26-5.78-2.36.49-3.57,3.1-4.53,6.24s-1.12,6.35-2.18,9.48C466,86,464,90.38,462.66,96,466,95.05,468.75,92.1,470.84,89.33Z" fill="#ff7000"/><path d="M464.44,109.2a70.62,70.62,0,0,0-2.9-7.81c-1.82,7.48-.9,15.5-6.37,20.9-1.22,1.2-6.45-1-5.23-2.21,4.91-4.85,7.87-12,9.5-18.77-5.8,4.89-21.15,17.31-17.47,21.19,2.68,2.83,9.84,5.56,12.91,7.24,1.12.61,6.59,2.89,9.93,0,2.46-2.11,2.46-8.88,1.84-11.53C465.93,115.15,465.26,112.25,464.44,109.2Z" fill="#ff7000"/><path d="M432.05,113.38c2,.94,5.48-1,7.83-2.85s6-3.87,8.52-5.39c3-1.82,6.85-3.1,9.27-4.74-2.56.56-6.2,1.62-8.87,1.53-4.44-.15-9.64.71-13.76-1.16-1.5-.68-.09-4.68,1.43-4a31.85,31.85,0,0,0,12.33,2.39,29.1,29.1,0,0,0,9.62-1.25c-6.05-2.39-9.66-6.34-13.74-8-4.74-1.87-13.73-6.55-15.43-2.29-1.58,3.94-1.15,12.21-1.44,16C427.7,105,427.84,111.45,432.05,113.38Z" fill="#ff7000"/><path d="M440.18,82.08c2.61,1.88,7.54,5.16,10.61,7.74,2.69,2.26,4.67,4.77,8.95,7.3-.3-8.47-4.69-17.63-12.08-20.33-1.56-.57,1.79-4.27,3.19-3.32,5.84,4,9,10.66,10.68,17.91.64-4.91,1.31-8.46,1.49-12.58.26-6.26,1.3-14.24-3.67-14.38-4.61-.13-11.09,4.42-15.08,5.7-1.46.46-7.14.77-7.66,6.45C436.36,79.31,437.5,80.15,440.18,82.08Z" fill="#ff7000"/><path d="M456.55,97.36c0-2.61-.29-3.43,2.12-3.43S464,95,464,97.65s-2.09,3.43-4.5,3.43S456.55,100,456.55,97.36Z" fill="#f3f7cb"/><path d="M434.63-19.51a236.84,236.84,0,0,0,4.86,30.06.13.13,0,0,1,0-.06c.33-1.67,1.26-13.38,2.47-30Z" fill="#ff5a85"/><path d="M444.16-19.51C442.9-2.22,441.94,10,441.59,11.76v.05a1.81,1.81,0,0,0,0,.52c1.64,10.5,3.76,16.63,6.07,25A6,6,0,0,0,449,40c1.21,2.88,3,7,3.84,7.93a4.78,4.78,0,0,0,3.49,1.48s.09,0,.23,0v0a2.29,2.29,0,0,0,.36-.07l.51-68.82Z" fill="#f3f7cb"/><path d="M485.62-19.51h-7.78C479.09.66,480,15.41,480,17.64l-.18.84C482.8,9,484.71-3.43,485.62-19.51Z" fill="#ff5a85"/><path d="M460.11-19.51v68.7l.19,0a12,12,0,0,0,1.28-.47,12.68,12.68,0,0,0,2.59-2.54c1.75-2.47,2.51-3.06,3.8-5,.21-.29.41-.59.61-.89,0,.1,0,.11,0,0,.18-.28.36-.57.54-.88a19.7,19.7,0,0,0,1.26-2.3c2.16-4.26,4.5-10.53,6.49-19.61.07-.28.13-.56.19-.85,0-2.19-.84-16.51-2.05-36.2Z" fill="#f3f7cb"/><polygon points="361.64 -0.7 349.43 -19.51 343.69 -19.51 355.77 -0.9 338.32 22.62 355.64 43.54 341.94 62.04 347.95 62.04 361.78 43.36 344.47 22.44 361.64 -0.7" fill="#ff7000"/><path d="M318.91,28a1.62,1.62,0,0,1-.79-.19l.82,33.08,13.31-18L319.74,27.81A1.71,1.71,0,0,1,318.91,28Z" fill="#f3f7cb"/><path d="M319.33,18a2.85,2.85,0,0,1,.29,0L332.67.41,320-19.07l-1.48,37.22A1.65,1.65,0,0,1,319.33,18Z" fill="#f3f7cb"/><path d="M422.3,6.45a1.61,1.61,0,0,1-1,.3h-.08l-10,14.32,13.89,17.42Z" fill="#f3f7cb"/><polygon points="424.61 62.04 424.25 47.72 413.65 62.04 424.61 62.04" fill="#f3f7cb"/><polygon points="418.45 -2.75 405.39 -19.51 399.26 -19.51 412.57 -2.42 396.82 22.74 414.03 43.54 400.34 62.04 406.35 62.04 420.18 43.36 402.76 22.31 418.45 -2.75" fill="#ff7000"/><polygon points="391.67 -0.85 376.97 -19.51 370.81 -19.51 385.58 -0.75 368.24 22.62 385.56 43.54 371.86 62.04 377.87 62.04 391.7 43.36 374.39 22.44 391.67 -0.85" fill="#ff7000"/><polygon points="334.57 -19.51 328.65 -19.51 341.94 -0.84 324.31 22.5 339 43.13 324.65 61.79 324.94 62.04 330.56 62.04 345.01 43.25 330.3 22.59 347.92 -0.75 334.57 -19.51" fill="#ff7000"/><polygon points="404.05 -4 392.13 -19.51 386.03 -19.51 398.12 -3.78 382.57 19.55 400.82 43.39 385.45 62.04 391.74 62.04 407 43.51 388.5 19.34 404.05 -4" fill="#ff7000"/><polygon points="375.77 -4 363.85 -19.51 357.75 -19.51 369.83 -3.78 354.29 19.55 372.54 43.39 357.17 62.04 363.45 62.04 378.72 43.51 360.22 19.34 375.77 -4" fill="#ff7000"/><polygon points="317.82 72.53 318.53 89.47 332.34 88.44 329.27 137.41 344.58 137.21 341.02 86.99 361.62 85.34 362.1 70.87 317.82 72.53" fill="#ff5a85"/><polygon points="349.79 91.4 361.39 91.74 362.33 136.79 348.13 137.21 349.79 91.4" fill="#ff5a85"/><polygon points="408.19 89.75 417.03 89.19 422.71 136.59 403.77 137.69 408.19 89.75" fill="#ff5a85"/><path d="M366.83,70.67V137h14.29l-.69-21.7s9-7.64,12.21.62-2.3,21.49-2.3,21.49h6s8.07-20.87,5.76-26.86c-1.92-5-3.91-7.65-12.44-7.85a56.83,56.83,0,0,0-7.38.2s8.3-1.86,12.45-5.37c7.6-6.43,6.68-29.14,6.68-29.14L386,69.63s3.46,17.36-.69,21.49a24,24,0,0,1-8.76,5.58l-.23-26Z" fill="#ff5a85"/><polygon points="408.14 72.76 416.44 72.26 413.99 79.04 419.65 75.24 421.73 80.53 415.69 80.86 422.11 82.68 419.08 87.48 414.37 82.51 416.07 88.63 410.78 89.13 411.91 82.68 406.82 87.14 404.18 83.34 410.21 81.36 403.61 80.69 406.25 74.91 410.59 78.71 408.14 72.76" fill="#f3f7cb"/><rect x="-14.02" y="326.64" width="325.74" height="192.32" fill="#964433"/><polygon points="307.97 518.96 308.1 483.14 156.27 486.92 156.27 518.96 307.97 518.96" fill="#8c1f41"/><polygon points="102.98 518.96 104.28 333.31 -14.02 334.48 -14.02 518.96 102.98 518.96" fill="#8c1f41"/><path d="M303.83,514.45a81.22,81.22,0,0,0-.36-13.15c-1.15-9.27,1-8.13-7.45-7.8-3.7.15-7.37.14-11,0C291.07,500.68,297.4,507.62,303.83,514.45Z" fill="#ff5a85"/><path d="M214.37,505.34a117,117,0,0,1,10.78-9.74c1.57-1.19,3.18-2.34,4.8-3.47-10.57.63-22.29,1.44-22.33,1.6-1.59,6.7.07,13.53,0,20.25C210.71,511.28,211.43,508.23,214.37,505.34Z" fill="#ff5a85"/><path d="M253.12,519h.9a2,2,0,0,1,1.4-.65h.14a1.85,1.85,0,0,1,.91.37c.77-1.2,1.9-2.94,3.12-4.7a54.14,54.14,0,0,1,3.91-5.12l3.92-13.3C258.74,499.8,257,506.94,256,510.8a13.71,13.71,0,0,1-.8,2.61l-.55,1.1a.66.66,0,0,1-.6.36.64.64,0,0,1-.63-.45l-.34-1.18A38,38,0,0,0,245,498.36a30.6,30.6,0,0,0-3-2.92l1.45,12.17C248.27,511.56,251.53,515.37,253.12,519Z" fill="#f3f7cb"/><path d="M133.32,336.4c-1.56,4.31.05,13.33.13,16.6.1,3.92.67,8.14.32,12.05-.34,3.68-4.47,5.68-6,1.66-1.13-3-.22-8-.23-11.2q0-8.44,0-16.9c-.06-3.05-2.26-5.54-4.89-5.55l-39.8-.12c-2.68,0-5,2.5-5.19,5.6l-1.06,18.29c0,.34,0,.7,0,1.08a19.85,19.85,0,0,0,2,8.29,9.57,9.57,0,0,0,7,4.35l24.14,1.32c2.68.14,5.08-2.25,5.35-5.34l1.68-19.16c0-.23,0-.46,0-.69-.06-2.84-1.94-5.18-4.39-5.43l-19.48-2c-2.63-.27-5.5,1.85-6.39,4.73l-1.08,3.51a8.6,8.6,0,0,0-.36,2.75,10,10,0,0,0,2.18,6.22l2.59,2.89a12,12,0,0,0,8,3.64l1.58,0c2.65-.06,5.15-2.58,5.56-5.62l.35-2.59a5.6,5.6,0,0,0,.06-1,5.27,5.27,0,0,0-4.14-5.34l-1.89-.29a5.81,5.81,0,0,0-4.47.8,1.85,1.85,0,0,0-.68,1.2,2.62,2.62,0,0,0,0,.28c0,1.43,1.5,2.74,3.43,3,1.67.26,2.71,1.26,2.73,2a.61.61,0,0,1,0,.14,2.69,2.69,0,0,1-2.68,1.85c-1.41,0-3.91-1.41-5.47-3.14a8.41,8.41,0,0,1-2-5.05,4.46,4.46,0,0,1,.17-1.38c.54-1.75,2.9-3,5.16-2.8l12.32,1.27a4.44,4.44,0,0,1,3.68,4.57,3.84,3.84,0,0,1,0,.59l-.88,10.05c-.23,2.64-2.26,4.68-4.52,4.55l-18.3-1c-2.56-.14-4.88-1.3-5.44-2.29a14.5,14.5,0,0,1-.93-5.49c0-.58,0-1.16,0-1.7l.72-12.37c.16-2.65,2.13-4.79,4.4-4.79l32,.1c2.21,0,4.06,2.12,4.11,4.7-.18,7.3-.35,14.6-.55,21.91-.26,9.93-8.88,8.66-16.35,8.56l-17-.22c-4.58.19-11.52,1.21-15.29-1.94-4-3.34-2.42-12.57-2.46-17.19S71,345.47,71,341a3.24,3.24,0,0,0,.22-1.25c-.06-3.05-4.54-5-6.83-5.08l-15.32-.84a4.15,4.15,0,0,0-3.29,1.36,5.54,5.54,0,0,0-1.39,3.92l1,21.69c.13,3.09,2.4,5.75,5.07,5.92l3.66.25a4.29,4.29,0,0,0,3.39-1.36,5.77,5.77,0,0,0,1.57-4l.23-9.22V352c-.05-2.59-.87-5.22-2.33-5.25a1.44,1.44,0,0,0-1.07.52c-.82.89-1.37,2.88-1.4,5.08l-.18,4.36a6.71,6.71,0,0,1-1.24,4.24,1.06,1.06,0,0,1-.81.38c-1-.06-2.14-2.11-2.26-5L49.43,344a4.56,4.56,0,0,1,1.16-3.27,3.37,3.37,0,0,1,2.7-1.12l7,.39c2.17.11,4,2.28,4,4.82V345q-.12,7.2-.22,14.41c-.09,5.35.78,12.64-6.68,12.82-2.64.06-6.36-1.29-8.72.16-2.17,1.33-3.24,5.68-3.16,8.14l.94,33.3c.08,3.12,2.34,5.6,5,5.53l35-.8c2.67-.06,5-2.62,5.16-5.71l1.16-20.6c0-.16,0-.33,0-.49-.05-2.9-2.06-5.31-4.56-5.48l-28.41-2c-2.67-.19-5.19,2.14-5.63,5.19L52.76,400A6.11,6.11,0,0,0,52.7,401a5.47,5.47,0,0,0,4.07,5.45l19.89,3.9c2.64.52,5.27-1.52,5.86-4.55l.79-4a6.5,6.5,0,0,0,.11-1.31,4.52,4.52,0,0,0-4-4.67l-8.16-.67a5.9,5.9,0,0,0-4.42,1.11,1.93,1.93,0,0,0-.61,1.25v.14c0,1.5,2,2.81,4.7,3l3.48.29c2.18.18,3.67,1.17,3.68,2a.45.45,0,0,1,0,.16c-.17.89-2,1.55-4.42,1.08L61.53,401.8a4.62,4.62,0,0,1-3.42-4.61,4.54,4.54,0,0,1,.06-.9l.25-1.76c.37-2.61,2.53-4.62,4.8-4.46L84,391.52a4.51,4.51,0,0,1,3.83,4.63c0,.14,0,.28,0,.43l-.66,11.63c-.14,2.64-2.12,4.84-4.39,4.89-5.8.14-11.71-.07-17.5.41-7,.57-13.35-1.89-14.51-9.52-.88-5.85-2.43-16.92,2.69-21.3s13.18-1.51,19.26-1.29,14.19-.9,20.18.74c9.17,2.5,3.89,23,3.56,29.74,0,.38,0,.76,0,1.13,0,2,.45,4,1.28,4.83l3.06-.07a4.17,4.17,0,0,0,.82-2.68q.4-7.5.8-15a89.06,89.06,0,0,0,.12-10.71c-.4-6.31,6.06-11.15,8.17-2.52,1,4.14.77,6.9.38,11.07q-.63,6.84-1.28,13.68a5.88,5.88,0,0,0,0,.73c0,2.82,1.93,5.15,4.36,5.41l18.58,1.1c2.5.28,7.71.66,10.15,0l5.12-.68c2.48-.68,4.37-3.54,4.31-6.52,0-.11,0-.22,0-.33l-1.45-21.07c-.21-3.1-2.57-5.51-5.25-5.36l-21,1.1c-2.67.14-4.88,2.78-4.92,5.88l-.2,14.55v.21a5.55,5.55,0,0,0,1.53,3.84,4.17,4.17,0,0,0,3.3,1.3l12.29-.84c2.66-.18,5-2.81,5.34-5.87l.58-6.11a5.83,5.83,0,0,0,0-.72,4.94,4.94,0,0,0-1.34-3.44,3.82,3.82,0,0,0-3.09-1.1l-5.51.48c-2.7.24-4.71,1.57-4.68,3.1v.09a1.89,1.89,0,0,0,.63,1.24,5.87,5.87,0,0,0,4.43,1.09l.67-.05a3.89,3.89,0,0,1,3.11.92,2,2,0,0,1,.62,1.43,2.09,2.09,0,0,1,0,.25c-.16,1.69-2.19,3.24-4.44,3.39l-4.58.31a3.46,3.46,0,0,1-2.73-1.06,4.75,4.75,0,0,1-1.27-3.23v-.18l.07-5.12c0-2.65,1.91-4.9,4.18-5l13.31-.7c2.26-.12,4.25,1.92,4.43,4.56l.87,12.57c0,.09,0,.19,0,.28,0,2.59-1.58,5.07-3.72,5.66l-.19.05a28,28,0,0,1-8.7.7l-16-1.75A4.46,4.46,0,0,1,115,408.1a4.33,4.33,0,0,1,0-.62l1.84-19.74c.25-2.65,2.31-4.93,4.59-5.08l30.85-2a3.48,3.48,0,0,1,2.77,1.1,4.74,4.74,0,0,1,1.3,3.29q0,6.94,0,13.89c0,1.81-1.05,18.84,3.35,15.57,3.2-2.38,1.46-13.72,1.45-17.09,0-4,.22-8.08,0-12.07-.1-1.62-1-3.86,1-4.46,1.59-.47,3.51,1.75,4,3,1,2.48-.05,6.73-.19,9.42q-.37,7.31-.76,14.59c0,.17,0,.34,0,.51.06,2.95-.91,6.66,1.42,7.68l3.53,1.55c2.36,1,9.1,1,11.62.81l8.07-.61c2.67-.2,4.84-2.89,4.85-6l0-25.83a5,5,0,0,0-1.54-3.72,3.76,3.76,0,0,0-3.33-.92l-13.51,2.65c-2.36.46-4.1,2.91-4.05,5.68a7.35,7.35,0,0,0,.07.82l2.24,15.21c.45,3.06,3,5.23,5.65,4.82l.92-.14c2.55-.39,4.51-3,4.45-6,0-.1,0-.2,0-.3l-.43-6.57c-.14-2.2-.79-4.15-1.66-5a1.48,1.48,0,0,0-1.1-.45c-1.25.11-2.11,2.29-2,5.2,0,.21,0,.42,0,.64l.15,2.17c0,.37,0,.72,0,1.07,0,2.28-.27,3.56-.48,3.82-.32-.25-1-1.87-1.42-4.59l-.91-6.15c0-.23-.05-.47-.06-.7a4.66,4.66,0,0,1,3.41-4.81l4.84-.95a3,3,0,0,1,2.7.73,4.2,4.2,0,0,1,1.25,3.07l0,15.89c0,2.65-1.85,4.95-4.12,5.12l-3.46.27a21.13,21.13,0,0,1-8.48-1.46c-2-.88-3.6-3.58-3.65-6.16a3.23,3.23,0,0,1,0-.44c.2-3.78.39-7.56.59-11.34.13-2.6-.28-6.06.44-8.55,1.62-5.65,7.66-4.91,12.06-4.88,1.93,0,3.85,0,5.77-.05,6.66-.15,5.86-11.61,5.71-16.11q-.22-6.36-.44-12.73l-.39-11.36c-.11-3.11-2.38-5.55-5.07-5.44l-37.19,1.54c-2.69.11-4.82,2.73-4.76,5.84l.37,19c.07,3.1,2.29,5.71,5,5.82l23.36,1a7.15,7.15,0,0,0,6.48-4.24,21.16,21.16,0,0,0,1.05-7.31,16.6,16.6,0,0,0-.17-2.23l-.53-3.5c-.46-3-3-5.6-5.63-5.74l-15-.82a4.07,4.07,0,0,0-3.24,1.33,5.44,5.44,0,0,0-1.36,3.85v.24l.19,3.31c.18,3.09,2.5,5.63,5.17,5.67l3.28,0a6,6,0,0,0,4.36-1.42,1.93,1.93,0,0,0,.54-1.33c0-1.53-2.06-2.75-4.63-2.79-2.23,0-4-.95-4-1.76a.65.65,0,0,1,.2-.46,5.16,5.16,0,0,1,3.75-.91l7.3.4a5.25,5.25,0,0,1,4.77,4.2,20.76,20.76,0,0,1,.22,2.68,10.86,10.86,0,0,1-.35,3.49c-.33.86-2.44,1.74-4.92,1.64l-16.88-.69c-2.27-.09-4.16-2.32-4.21-5l-.2-10c-.05-2.64,1.75-4.86,4-5l29.23-1.21a3.79,3.79,0,0,1,2.93,1.28,5.12,5.12,0,0,1,1.32,3.33l.68,19.62c.05,2.68-1.12,5.59-2.62,6.5a11.92,11.92,0,0,1-3.54,1.23H168.48c-6.91-.23-25.64,2.69-27.38-6.87-.6-3.27.05-6.79-.22-10.14-.26-3.2-.86-6-.86-9.43,0-2.79,1.38-7.89-.27-10.24a3.88,3.88,0,0,0-5.35-.68A4,4,0,0,0,133.32,336.4Z" fill="#f3f7cb"/><path d="M-3,483.8c0,3.32,2.69,24.42,0,26.48a16.19,16.19,0,0,1,1.42-1c5.39-3.24,12.5-3.94,18.82-2.79a29.38,29.38,0,0,1,16.08,8.8A28.53,28.53,0,0,1,36.13,519h8.36v-1.6c0-3.15.86-7.4-2.27-9.55-.16-.11-5.44-1.59-7.48-2.31a69.27,69.27,0,0,1-10.86-2.72c-6.65-2.27-14.15-4.43-18.37-10S.38,479.93,1.78,473.4a29.18,29.18,0,0,1,11-16.7,44.81,44.81,0,0,1,16.13-7.49,37,37,0,0,1,5.29-1c1.94-.16,3.7,0,4,1.25.62,2.82-8.57,4.36-10.41,5-5.43,1.89-12.09,5.53-14.88,10.41-4.17,7.31-5.69,11.94-3.73,19.64,2.17,8.53,9,11.91,17.19,14.58a68.72,68.72,0,0,0,14.93,3.29v.33c2,.15,4.28.5,5.44,1.64a8.33,8.33,0,0,1,1.83,3.2A35.31,35.31,0,0,1,50.33,519h9.13A33.7,33.7,0,0,1,76.69,507a22.21,22.21,0,0,1,16.06,1.31,26,26,0,0,1,6.4,5.13V483.78c0-9.33,4.3-33.12-3.38-40-3.09-2.78-46.7-3.83-47-2.27a50.79,50.79,0,0,0-.55,9.12c-.1,5.36,4.77,5.13,9.09,5.95A43.08,43.08,0,0,1,68.08,460c6.44,3.14,11.67,8.43,12.33,15.51C81.6,488.23,69,494.78,57.46,497.87a42.4,42.4,0,0,1-17.2.62c-6.82-1-15.29-1.79-20.8-5.9a18.4,18.4,0,0,1-4.09-24.88c3.18-4.53,8.53-7,13.82-8.76,2.77-.91,5.61-1.62,8.45-2.32,1.69-.42,3.84-.52,5.09-1.84,1.5-1.59.71-4.67.65-6.63a59.48,59.48,0,0,0-.13-6.68H23.11c-7,0-20.53-1.13-24.65,5.62C-5.16,453-3,457.85-3,464.15Zm55.17,18.67c.34-1.41,4.81-.92,6.45-1.24a36.33,36.33,0,0,0,16.23-7.35c6-4.87,10.49-9.9,9.57-18.1-.88-7.85-4.71-13.74-11.32-18.14a53.62,53.62,0,0,0-11.41-5.37c-2.16-.8-7-.43-8.4-2.73-.91-1.54,1.41-2.35,2.59-2.64,2-.48,3.88.08,5.79.57a46.25,46.25,0,0,1,11.94,5c7.35,4.35,13.72,10.8,16.48,18.69A19.7,19.7,0,0,1,88.56,488c-2,3.29-5.07,5.63-8,8.13s-6.24,3.1-9.62,4.78c-3.81,1.89-13,5.76-17.18,3.72C52.9,504.25,51.87,503.56,52.13,502.47Z" fill="#ff5a85"/><path d="M40.53,483.47c-5-2.43-5.3-9.15-.11-11.07,1.26-.46,2.86-.43,3.41-1.84a16,16,0,0,0,.87-6.72c-.31-3.68-2.08-3.69-5.43-2.92-7.87,1.82-16.16,4.13-19.3,12-1.72,4.29-2.23,9.83.45,13.87,2.14,3.24,5.89,5,9.46,6.32,3.3,1.17,6.86,2.51,10.38,2.6,11.19.31,27.07-1.1,31.8-11a15.6,15.6,0,0,0-5.91-19.62c-3.26-2.08-11-5.82-14.88-4.14a5.23,5.23,0,0,0-3,4.73c0,.74.06,5.36.74,5.63,6.81,2.61,8.92,4,6.33,9.66C53.4,485.25,44.61,485.46,40.53,483.47Zm20.35-7.14c-.88-2.84-3.51-4.63-6.11-6-1.06-.57-4.53-2-3.71-4.44.5-1.51,4.7-.61,6.65.31,5.25,2.48,10.55,7.67,10.05,12.73-.73,7.46-9.89,12-17.16,12.79-7.61.78-22-2.13-26-9.11C20.69,475.79,28.45,466,37,465.22a10.45,10.45,0,0,1,1.59,0c3.36.17,1.37,2-.26,3.17-2.38,1.74-5,3.05-6.77,5.44-2.83,3.81-.34,8.51,3.43,10.66a26,26,0,0,0,15.86,2.86C56.47,486.55,62.85,482.7,60.88,476.33Z" fill="#ff5a85"/><path d="M149.2,497.43a9.55,9.55,0,0,0,0-1.75,5.41,5.41,0,0,0-.31-.47,12,12,0,0,0-1.12,3,2.54,2.54,0,0,0,1.44-.74Z" fill="#020000"/><path d="M124.14,519a33.15,33.15,0,0,0,9.59-6.9,35.88,35.88,0,0,0,4.07-4.77,4.59,4.59,0,0,1-1.61.29c-2.94,0-14.79-4.25-15-7.61s11.59-4.54,14.65-4.55a5.9,5.9,0,0,1,5.63,5.81,60.27,60.27,0,0,0,3.34-8.36c-1.88.41-5-.09-8.13-1-9.69-3.65-25.48-4.53-25.67-4.11-.84-.37,15.37-6.29,28.07-1.95,3.37,1,5.8,2.61,6.86,4.05a.12.12,0,0,1,.08,0c.1,0,.19.15.24.49a1.52,1.52,0,0,1,0,1.78,37.13,37.13,0,0,1-10.54,22.35,30.3,30.3,0,0,1-5.5,4.5h7.53a3.74,3.74,0,0,1,2.25-1.21c2.46-.32,4.34.42,5.75-2.52,2-4.07,2.81-18.26,3.1-24.17-3.4-4.89-8.87-11.62-15.39-14.75-10.87-5.58-21.76-5.34-21.87-6.08-.61-.65,10.71-4.93,22.87,1.14,9.06,4.37,15.29,16.19,17.5,22,1.29-4.39,7.34-17.5,17.46-22.45,12.17-6.15,23.51-1.95,22.9-1.3-.12.74-11,.57-21.89,6.23-6.81,3.31-12.17,9.93-15.34,14.41.23,5.34,1.05,20.66,3.1,24.91,1.57,3.25,3.67,1.92,6.25,2.57a3.4,3.4,0,0,1,1.87,1.19h7.53a30.63,30.63,0,0,1-5.57-4.51,36.71,36.71,0,0,1-10.52-22.74l-.12-.09c-1.34-1.33,1.41-4.85,6.78-6.87,12.41-5.31,29.17-.7,28.36-.27-.23-.39-16.1,1.71-25.55,6.12-3.17,1.19-6.3,1.94-8.2,1.63a62.33,62.33,0,0,0,3.62,9.16,6,6,0,0,1,5.66-6c3.06,0,14.5,2.16,14.25,5.52s-11.73,6.63-14.67,6.64a4.7,4.7,0,0,1-1.8-.36,35.42,35.42,0,0,0,4.16,4.88,32.87,32.87,0,0,0,9.72,6.93h12.86q.61-39.47.23-78.93H186.5c.13-2.08.27-4.17.4-6.25L167,437c.16-5.18-4.2-9.37-9.74-9.36l-13.35,0c-5.54,0-9.89,4.22-9.7,9.4,0,.21,0,.42,0,.63q-9.88-1.86-19.91-3.71c.14,2.09.29,4.17.43,6.25l-6.52,0q-.26,39.38.53,78.74Zm68.94-68.18c.09.84-12,2.44-22.82,11.74-11.08,9-14.3,20.23-15.11,20-.82.24-.37-13.75,11.76-23.74C179,448.62,193.59,449.93,193.08,450.78Zm-24.53-6.1c8.2-6.71,18-5.85,17.66-5.28.07.55-8.93.67-16.32,6.81-7.52,5.94-8.91,14.3-9.47,14.14C159.84,460.51,160.31,451.28,168.55,444.68Zm-16.63-6.8a9.56,9.56,0,0,1,9.46,10c-.36,12.07-9.57,30-9.48,30s-9.09-16.91-9.44-29.95A9.61,9.61,0,0,1,151.92,437.88Zm-17.18,6.87c8.25,6.57,8.71,15.8,8.14,15.64-.56.16-1.95-8.19-9.48-14.1-7.38-6.1-16.38-6.18-16.32-6.74C116.76,439,126.55,438.08,134.74,444.75Zm2.17,14.09c12.12,10,12.56,23.93,11.74,23.69-.81.24-4.05-10.94-15.12-19.9-10.86-9.24-22.86-10.82-22.78-11.66C110.24,450.11,124.84,448.74,136.91,458.84Z" fill="#020000"/><path d="M17.54,356.58C16,357.82,8,364.16,5,367.81c-7.65,9.34-10.58,20.2-10.58,34,0,18.84,9.5,25.58,24.83,26.22-.11-3.43.21-7.18.29-10.26a10.31,10.31,0,0,1,1.18-5.12A3.61,3.61,0,0,1,23.26,411a1.81,1.81,0,0,1,2,.83,6.49,6.49,0,0,1,.46,3.41c-.16,3.92.14,3-.18,6.88,6-4.63,7.61-21.48,6.28-37.08S20.5,359,18.26,356.78c5.11-6.44,8.31-13.56,13.38-20-4.48,2.57-8.3,4.49-13.36,4.44-3.26,0-6.61.38-9.73-.85A42.56,42.56,0,0,1,0,335.6c2.6,4.26,8.12,10.12,11.35,13.85ZM9.22,416.87c-2.72,0-4.93-2.6-4.93-5.81s2.21-5.81,4.93-5.81,4.92,2.6,4.92,5.81S11.94,416.87,9.22,416.87ZM26.28,374c-.22.26-4.61-2.16-11-2.24H15c-.26,1.42-.52,3.05-.73,4.83,9.31.21,14.9,5.37,14.38,5.56-.3.35-6.16-2.89-14.63-3-.12,1.34-.2,2.74-.24,4.21h.37c9.38.17,15,5.37,14.5,5.56-.3.35-6.19-2.9-14.71-3h-.21c0,2.31.07,4.47.22,6.42,10.27.24,16.43,5.93,15.86,6.14-.32.38-6.54-3-15.59-3.31.54,4.89,1.32,8,1.14,8.16-.11.41-1.68-2.74-2.72-8.19-8.91-.1-15.17,3-15.45,2.58-.53-.22,5.55-5.13,15-5.39a53.45,53.45,0,0,1-.46-6.41c-7.33.22-12.36,2.66-12.6,2.33-.46-.2,4.62-4.32,12.62-4.83,0-1.5.14-2.93.28-4.27-7.49.16-12.66,2.67-12.9,2.33-.47-.2,4.88-4.52,13.23-4.86a46,46,0,0,1,1-4.83c-5.31.21-8.94,2-9.12,1.72-.34-.15,3.56-3.3,9.68-3.61,1.17-3.59,2.37-5.41,2.45-5.05.13.2-.41,2-1,5h.09C22.46,370,26.67,373.9,26.28,374Z" fill="#ff7000"/><polygon points="297.22 326.64 272.26 327.68 273.78 347.92 201.63 343.41 201.94 365.85 275.91 360.65 278.35 390.84 299.65 391.53 297.22 326.64" fill="#ff7000"/><polygon points="269.42 373.49 268.91 390.49 202.54 391.88 201.94 371.06 269.42 373.49" fill="#ff7000"/><polygon points="271.85 459.08 272.66 472.03 202.85 480.36 201.23 452.6 271.85 459.08" fill="#ff7000"/><path d="M300,398.47H202.24v20.94l32-1s11.27,13.17-.91,17.9-31.66-3.38-31.66-3.38v8.78s30.75,11.82,39.58,8.44c7.37-2.82,11.26-5.74,11.56-18.23a83.47,83.47,0,0,0-.3-10.81s2.74,12.16,7.91,18.24c9.48,11.13,42.93,9.79,42.93,9.79l-1.83-22.63s-25.57,5.07-31.66-1a35.19,35.19,0,0,1-8.22-12.84l38.36-.33Z" fill="#ff7000"/><polygon points="300.82 458.12 301.58 470.8 291.18 467.05 297.02 475.69 288.9 478.86 288.39 469.64 285.6 479.43 278.24 474.83 285.85 467.63 276.47 470.22 275.71 462.16 285.6 463.88 278.75 456.11 284.59 452.08 287.63 461.29 288.64 451.21 297.52 455.24 291.69 461.87 300.82 458.12" fill="#f3f7cb"/><rect x="311.72" y="326.64" width="209.73" height="192.32" fill="#964433"/><polygon points="521.45 518.96 521.45 334.17 428.43 335.1 428.17 518.96 521.45 518.96" fill="#8c1f41"/><path d="M501,483.8c0,3.32,2.69,24.42,0,26.48a15,15,0,0,1,1.43-1c5.38-3.24,12.49-3.94,18.81-2.79l.25.06v-6c-4.63-1.75-9.05-4-11.94-7.78-4.17-5.51-5.13-12.84-3.73-19.37a29.18,29.18,0,0,1,11-16.7,36.4,36.4,0,0,1,4.7-3V441.41c-7.07,0-15.81.48-19,5.69-3.62,5.94-1.5,10.75-1.5,17Z" fill="#ff5a85"/><path d="M451.22,352.63c.17-2.23,2.93.88,4,1.32l0-.36a6.23,6.23,0,0,1-2-1.08c-2.67-2.05-5-5.44-7.06-8.83C439.84,370,434.54,413.82,432.68,449c.4,29.06,3.22,50.38,6.81,65.57a.07.07,0,0,1,0,0C440.63,508.91,448.3,391.38,451.22,352.63Z" fill="#ff5a85"/><path d="M457.14,519l1.21-163.62a4.17,4.17,0,0,1-.86-.08l-.13-.05c-1.11-.44-3.87-3.55-4-1.32-2.93,38.75-10.59,156.28-11.73,161.86v.06a1.81,1.81,0,0,0,0,.52c.15.91.29,1.78.44,2.63Z" fill="#f3f7cb"/><path d="M479.86,519h.94c3.8-14,5.52-33.62,5.42-60.93-.86-46.87-4.64-94.84-12-115.9-1.13,2.38-2.25,4.75-3.48,7-.4.75-.83,1.47-1.27,2.14l.05-.07C471.51,385.4,478.93,499.13,479.86,519Z" fill="#ff5a85"/><path d="M460.11,519H477c-.71-16.81-8.36-133.92-10.35-168.68l0,.06c-.2.3-.4.59-.61.87h0l-.6.76-.18.21-.48.52-.18.19c-.22.21-.44.42-.67.6v.14a5.78,5.78,0,0,1-3.81,1.58Z" fill="#f3f7cb"/><path d="M521.45,395.42c-1-.11-2.09-.2-3.21-.23.54,4.89,1.32,8,1.14,8.16-.11.41-1.68-2.74-2.72-8.19-8.91-.1-15.17,3-15.45,2.58-.53-.22,5.55-5.13,15-5.39a53.45,53.45,0,0,1-.46-6.41c-7.33.22-12.36,2.66-12.6,2.33-.46-.2,4.62-4.32,12.62-4.83,0-1.5.14-2.93.28-4.27-7.49.16-12.66,2.67-12.9,2.33-.47-.2,4.88-4.52,13.23-4.86a46,46,0,0,1,1-4.83c-5.31.21-8.94,2-9.12,1.72-.34-.15,3.56-3.3,9.68-3.61,1.17-3.59,2.37-5.41,2.45-5.05.13.2-.41,2-1,5h.09c.69,0,1.35.07,2,.14v-13.4c-1.74,1.37-9.52,7.57-12.48,11.17-7.65,9.34-10.58,20.2-10.58,34,0,18.1,8.77,25,23.06,26.12Zm-8.23,21.45c-2.72,0-4.93-2.6-4.93-5.81s2.21-5.81,4.93-5.81,4.92,2.6,4.92,5.81S515.94,416.87,513.22,416.87Z" fill="#ff7000"/><polygon points="342.07 435.79 355.81 458.14 340.34 479.33 355.77 503.1 344 518.96 350.02 518.96 361.64 503.3 346.19 479.51 361.61 458.39 347.83 435.98 361.37 416.65 344.86 395.94 340.89 395.94 339.6 397.12 355.34 416.86 342.07 435.79" fill="#ff7000"/><path d="M322.27,440a1.58,1.58,0,0,1-.95-.29L320,473.26l12.65-17.33-9.84-16A1.69,1.69,0,0,1,322.27,440Z" fill="#f3f7cb"/><path d="M320.6,428.63a1.56,1.56,0,0,1,1-.16l.07,0,11.73-12.76-11.59-19.25Z" fill="#f3f7cb"/><polygon points="321.87 518.96 332.67 504.41 320.02 484.93 318.67 518.96 321.87 518.96" fill="#f3f7cb"/><path d="M421.34,500.24a1.6,1.6,0,0,1,1,.29l1.3-33.53-12.65,17.33,9.84,16A1.93,1.93,0,0,1,421.34,500.24Z" fill="#f3f7cb"/><path d="M409.57,395.94l12.2,14.75a1.67,1.67,0,0,1,.83-.21,1.77,1.77,0,0,1,.79.18L423,395.94Z" fill="#f3f7cb"/><path d="M424.28,418.29a1.36,1.36,0,0,1-.29,0l-13.05,17.59,12.65,19.48,1.47-37.22A1.73,1.73,0,0,1,424.28,418.29Z" fill="#f3f7cb"/><polygon points="412.57 501.58 401.69 518.96 407.36 518.96 418.45 501.25 401.86 479.95 420.23 458.34 402.94 436.07 419.92 416.84 403.25 395.94 399.29 395.94 398 397.12 413.59 416.67 396.65 435.86 413.99 458.19 395.61 479.8 412.57 501.58" fill="#ff7000"/><polygon points="385.58 503.25 373.92 518.96 379.94 518.96 391.67 503.15 373.34 479.87 391.75 456.48 374.52 436.01 391.44 416.84 374.78 395.94 370.81 395.94 369.52 397.12 385.11 416.67 368.11 435.93 385.5 456.59 367.18 479.88 385.58 503.25" fill="#ff7000"/><polygon points="326.37 436.02 341.93 456.27 325.37 479.89 341.94 503.16 330 518.96 336.06 518.96 347.92 503.25 331.28 479.86 347.93 456.13 332.39 435.91 346.88 415.78 331.06 395.94 325.41 395.94 325.09 396.23 340.81 415.95 326.37 436.02" fill="#ff7000"/><polygon points="398.12 500.22 385.63 518.96 391.42 518.96 404.05 500 388.48 479.74 404.77 454.3 389.78 436.03 406.72 416.84 390.06 395.94 386.1 395.94 384.8 397.12 400.39 416.67 383.41 435.9 398.81 454.68 382.59 480.01 398.12 500.22" fill="#ff7000"/><polygon points="355.31 436.13 370.53 454.68 354.31 480.01 369.83 500.22 357.35 518.96 363.13 518.96 375.77 500 360.2 479.74 376.49 454.3 361.32 435.8 374.81 415.56 359.31 395.94 355.37 395.94 354.07 397.12 368.85 415.82 355.31 436.13" fill="#ff7000"/><path d="M352.27,377.75c5,.37,9.1-3,9.09-7.44,0-1.75-1.16-3-1.67-4.66a16.1,16.1,0,0,1,0-8.92c.51-1.67,1.65-2.79,1.64-4.66,0-4.48-4.09-7.81-9.12-7.45s-9.1,4-9.09,8.09c0,1.6,1.17,2.75,1.67,4.27a14.28,14.28,0,0,1,0,8.39,9.08,9.08,0,0,1-.73,1.69,4.37,4.37,0,0,0-.91,2.58C343.15,373.75,347.24,377.38,352.27,377.75Z" fill="#020000"/><path d="M415.8,387.88c0-1.41,0-2.82,0-4.23l4.46.27q-1.14-6.48-2.26-12.87a6.35,6.35,0,0,0,6.66-6.31q0-4.32,0-8.65a6.36,6.36,0,0,0-6.7-6.28h-.44q1.32-6.4,2.64-12.89l-4.46.28c0-1.41,0-2.82,0-4.22-35.31-.22-57.39.35-92.7,1.7,0,0-4.19,8.4-4.15,26.42s4.27,25.4,4.27,25.42C358.4,387.76,380.49,388.21,415.8,387.88Zm-1.11-26.53c0,3.46-1.64,6.2-3.69,6.12-4.47-.24-11.12-6.22-11.12-6.16s6.26-5.87,11.1-6.09C413,355.15,414.68,357.89,414.69,361.35Zm-7.52-11.41c-3,5.86-11.13,9.89-15.15,11.32,3,.84,12,4.76,15.44,11.32,4.23,7.88,1.34,15.22.89,14.82-.51-.07-.39-7.13-4.28-14.17-2.28-4.41-6.83-7.89-9.91-9.94-3.67.16-14.2.68-17.12,2-2.24,1-1.32,2.37-1.77,4.05-.53,2-3.48,2.3-5.37,1.31a7.92,7.92,0,0,1-2.67-2.19,2.86,2.86,0,0,0,1.95-2.58c0-1.63-1.61-3-3.59-3h-.17c0-.56-.06-1.12-.07-1.68v0c0-.56,0-1.13.06-1.7h.17c2,0,3.58-1.34,3.58-3a2.85,2.85,0,0,0-1.88-2.55,8,8,0,0,1,1.81-1.69,6.38,6.38,0,0,1,2.13-1c1.88-.44,3.84.55,4.07,2.16s-.29,2.81,1.73,3.73c2.8,1.27,12.55,1.82,16.62,2,3.36-2.2,8-5.74,10.13-10,3.84-7.05,3.67-14.1,4.18-14.17C408.4,334.72,411.34,342.05,407.17,349.94Zm-36.7-13.81c.62-.09,1.88,8.07,9,13.81a23.37,23.37,0,0,0,2.3,1.62,8.8,8.8,0,0,1-.83-3.82c0-3.61,2-6.54,4.35-6.54,1.83,0,3.39,1.7,4,4.1a3.15,3.15,0,0,0-1.95-.65,3.13,3.13,0,1,0,0,6.25,3.13,3.13,0,0,0,1.92-.62,5.57,5.57,0,0,1-2.79,3.73c2.85,1.25,5.08,1.95,5.24,2.61a11.15,11.15,0,0,1,.72-5.26c2.6-6.28,3.22-16.51,2.93-16.63.26-.54,4.48,9.95,1.39,18.18a8.36,8.36,0,0,1-2.71,4.36s-.17.12-.17.14-.11.12-.36.15a1.14,1.14,0,0,1-1.26,0,27.74,27.74,0,0,1-15.93-6.82C368.87,344.11,369.84,336,370.47,336.13Zm-39,3.16c4-4.62,11-2.29,11-1.94.15.23-5.55,2.11-9.13,6.23-3.74,4.05-3.16,7.94-3.55,8S327.39,343.83,331.46,339.29Zm-10.37,22.33s6.76-3.23,12-3.31a3.69,3.69,0,0,1,4,3.34c0,1.87-1.78,3.36-4,3.32C328.25,364.87,321.09,361.59,321.09,361.62Zm20.23,4.65a13.88,13.88,0,0,0,.92-5.1,14.07,14.07,0,0,0-.94-5.09c-.73-1.85-2.43-3.22-2.44-5.16,0-4.95,5.95-9.49,13.32-10.15s13.35,3.37,13.36,9c0,2.34-1.66,3.76-2.41,5.85a17.23,17.23,0,0,0,0,11.14c.74,2.06,2.43,3.67,2.44,5.85,0,5.63-6,9.66-13.32,9s-13.35-5.23-13.37-10.18c0-1.38.55-2,1.34-3.11A9.25,9.25,0,0,0,341.32,366.27Zm-8.14,17.09c-4.77-4.23-4.16-12.9-3.76-12.8s.48,4.19,4.84,7.95,10.19,5,10.08,5.28C344.45,384.16,337.88,387.69,333.18,383.36Zm64.55,4.33c.28-.14-1.22-10.42-4.35-16.54-.85-2.06-1.38-4.08-1.17-5.31-.12.56-2.32,1.31-5.32,2.75a6,6,0,0,1,2.45,3.66,3.09,3.09,0,0,0-1.95-.65,3.13,3.13,0,1,0,0,6.25,3.13,3.13,0,0,0,1.92-.63c-.65,2.35-2.2,4-4,4-2.4,0-4.35-2.92-4.35-6.53a9.35,9.35,0,0,1,.48-3,28.24,28.24,0,0,0-8.92,9.51c-.95,1.69-.94,3.74-2,5.35-.85-3.1,0-6.4,1.6-9.26,3.71-6.73,12-12.05,20.51-12.28l.06-.08c.94-.87,3.45.91,4.89,4.39C401.32,377.37,398,388.22,397.73,387.69Z" fill="#020000"/></g><g opacity="0.6" style="mix-blend-mode:overlay"><g opacity="0.85"><path d="M208.09,399.51c-.13-39.5.59-59.26.1-97.83-.05-3.73-1.29-3.79-1.41-.06-.95,29.12-1.63,68.67-1.1,97.95-1,63.78-3.78,72-2.42,68.74.71-1.72,3.93-11.37,4.83-68.8ZM91.88,281.56c2.11-5.72.76-77.28,2-142.12.2-14.9.87-88-1.26-92.54-2.59,7.36-1.17,77.77-1.14,92.54-1.33,52.87-.44,136.75.44,142.12ZM95.8,504.44h3.91c-2.82-34.94-.38-70.18-1.86-71.31-1.38,1.43-5.15,30.08-2,71.31Zm63.39,0h-4.27c-.1-20.06,2.38-49.4,2.83-63.73.14-16.06-.4-38-.14-39.3.58.35.87,9.57,1.52,24.09-.32,20.86-1.6,52.15.06,78.94Zm52.3,0h-8.65c-.25-21,8.24-57.15,8.26-69.6-.63-29.67,1.45-60.9,1.59-87.13-.31-28.77.6-48.46-.63-74.71-1.06-35.06-3.13-45.76-7.58.43-1.79,26.37-2,45.51-2.35,74.28-2,25.31-1.91,59.83-2.53,89.51.34,12.44-3.1,49.4-2.46,67.22h-5.76c-.72-29.67,5.32-43.23,4.4-68-.13-30-.43-58.77,1.23-88.42.05-28.18,2.8-46.28,3.7-75.15,1.71-24.82,3.7-49.25,8-71.89,1.56-8.2,3.17-7.14,4.08,0,2.9,22.92,2.44,47.07,3.51,71.89.89,28.87.69,47,.74,75.15.77,29.65-1.22,56-1.35,86.05-.45,24.81-4.13,41.1-4.2,70.37ZM280.56.44h2.75c.95,13.5-2.56,47-2.58,56.94.51,23.74-1.22,46.8-1.33,67.79.24,23-1.49,34.64-.51,55.63.85,28,.69,41.35,4.25,4.41,1.43-21.09,1.63-36.4,1.88-59.41,1.63-20.24,1.52-47.86,2-71.59-.28-10,2.83-39.51,2-53.77h4.19c.57,23.74-3.84,34.58-3.1,54.38.1,24,.34,47-1,70.73,0,22.55-2.24,37-3,60.1-1.36,19.86-2.95,39.4-6.4,57.51-1.25,6.55-2.53,5.7-3.26,0-2.32-18.34-.13-42.39-1-62.25-.72-23.09.45-33.45.41-56-.61-23.72,1.75-42.28,1.85-66.29.36-19.85,3.6-34.93,2.79-58.19Zm-14.05,0c1.83,30.12-6.25,68.31-5.73,115.61,1.11,48.4,1.69,68.94,2.86,114.54,5.52,58.84,7.11,87.36,4.24,145.51-2.65,22.46-4.75,60.44-3.93,93,.33,13.09,1.87,25.27,2.56,35.31h5.85c2-34.71,1.36-66.18-.34-127.4.89-58.49.41-86.37-.33-145.29-1-27.91-2.19-68.32-4.4-115.35-.53-40.74,4.38-76.78,5.07-116ZM11.14.44H17c-.69,39.18-5.6,75.22-5.07,116,2.21,47,3.39,87.44,4.39,115.35.75,58.92,1.23,86.8.34,145.29,1.69,61.22,2.35,92.69.34,127.4H11.14c-.69-10-2.23-22.22-2.56-35.31-.82-32.59,1.28-70.57,3.93-93,2.87-58.15,1.28-86.67-4.24-145.51C7.1,185,6.51,164.45,5.4,116.05,4.88,68.75,13,30.56,11.14.44Zm241.1,0h5.2c1.36,36.21-4.86,71.93-4.64,116,2.71,47.5,1.59,87.44,3.58,115.12,5.34,60.56,7.7,89.14,3.23,146.34-.81,14-3.94,80.38-2.17,126.58h-5.2c-.8-30.32,2.33-116.5,3.23-127.52,2.87-58.14.57-88.4-3-145.86-1.09-59.93-2.26-54.87-2.53-114.78-.68-41.44,3.26-75.48,2.34-115.84Zm-5.74,0c.59,40.36-1.89,74.4-1.22,115.84.28,59.91,1.44,80.62,2.53,140.55,1.48,57.46,1.75,79.77.48,137.91-.08,11-1.8,82.2-1.79,109.7h1.82c.14-27.16,2.2-98.35,2.18-109.76,1.94-57.2,1.89-76.6-.84-137.16-1-60.18-2.34-81.09-2.61-141.12-1.28-41.43,1.81-76.17,1.27-116Zm-4.59,0h1.81c.44,39.71-2.54,74.53-1.27,116,.28,60,.62,80.94,1.64,141.12,1.58,60.56,1.19,80,.69,137.16,0,11.35-1.09,82.18-1.06,109.76h-1.81c-.18-27.5.9-98.66,1-109.7,1.26-58.14.83-80.45-.65-137.91-1.09-59.93-1.28-80.64-1.56-140.55C240,74.84,242.39,40.8,241.91.44Zm-5.11,0c.78,40.09-1.57,74.87-.9,116.31.67,59.92.79,80.38,1.39,140.31.17,57.47,1.75,79.54.49,137.68-.08,11-1.25,82.2-1,109.7h1.82c-.14-27.55,1.06-98.18,1-109.52.5-57.21.89-76.84-.68-137.4-.2-59.95-1-80.62-1.31-140.64-1.28-41.43,1.69-76.92,1-116.44ZM25.24.44h1.82c.74,39.52-2.22,75-.95,116.44.28,60,1.11,80.69,1.31,140.64,1.58,60.56,1.19,80.19.69,137.4,0,11.34-1.18,82-1.05,109.52H25.24c-.27-27.5.9-98.66,1-109.7,1.26-58.14-.32-80.21-.48-137.68-.61-59.93-.73-80.39-1.4-140.31C23.67,75.31,26,40.53,25.24.44Zm206.09,0h2.52c.87,40-2,80-.71,121.58.6,25.24.58,51,.6,78.36-.77,29.45.36,62.82.67,98.66-1.11,60.21,0,119.27-.72,176.64,0,9.91,0,19.26.16,28.76h-2.52c-.18-9.66.84-19.33.91-29,.44-58.88-.31-118.11.1-176.74.22-32-.59-63.72-1.07-94.88.1-27.5-.64-54.52-.54-81.95-.68-41.06.65-80.24.6-121.45ZM19.77.44c.06,41.21-1.28,80.39-.59,121.45-.11,27.43.63,54.45.54,82,.47,31.16,1.29,62.85,1.06,94.88-.41,58.63.34,117.86-.1,176.74-.07,9.65-1.08,19.32-.91,29h2.52c-.2-9.5-.15-18.85-.16-28.76.77-57.37-.38-116.43.72-176.64-.31-35.84-1.44-69.21-.67-98.66,0-27.34,0-53.12-.59-78.36-1.3-41.55,1.57-81.61.7-121.58Zm199.5,0h6.62c.35,41.46.61,80.25-.59,120.78.23,23.83-.38,45.37-.72,65.28.26,29.8,0,58.19,2,88.41,1.05,58.12-.15,76.07.39,133.59-.37,11.25-.54,70.87-1,95.94h-6.62c.28-25.1,3-84.22,3-95.45-1.15-56.41,1.52-72-.12-132.89-2.12-34.22-2.8-60.86-2.93-89.18-.49-20-1.13-40.85-.81-65.82,2-41.23,1.21-80.57.84-120.66Zm-189,0h6.62c.36,41.46.62,80.25-.58,120.78.22,23.83-.38,45.37-.73,65.28.26,29.8,0,58.19,2,88.41,1,58.12-.16,76.07.39,133.59-.38,11.25-.55,70.87-1,95.94H30.31c.28-25.1,3-84.22,3-95.45-1.16-56.41,1.51-72-.12-132.89-2.13-34.22-2.81-60.86-2.94-89.18-.49-20-1.13-40.85-.81-65.82,2-41.23,1.21-80.57.84-120.66Zm172.53,0h8.65c-.16,14.61-1.14,97.46-1.18,138.67,0,23.11-1.13,23.06-2.93-.4-3.17-41.2-4.11-102.58-4.54-138.27Zm-11.46,0h5.76c2.1,40.09,3,79.43,3.41,120.66,1.86,60.29-1.41,96.83-5.76,155.24-2.14,60.88-1.55,76.24-2.31,132.65,0,11.23-6.9,70.19-5.46,95.45H185.5c-1.09-24.57,3.22-84.69,2.85-95.94.54-57.52.86-75.47,1.9-133.59.91-30,2.05-58.21,4-88.41,1.91-19.91,1.74-41.69.62-65.53.66-40.74-1.19-79.42-3.48-120.53Zm-5.88,0c2.06,41.11,2.33,79.79,1.67,120.53-2.08,61-2.1,105-3.59,154.24-1.34,58.11-1.9,75.77-2.2,133.29.38,11.25-1.95,71.2-.83,95.94h1.52c-1.11-22.2,1.8-84.22,1.78-95.45,1.75-56.06,1.28-71.93,2.23-133.23.61-59.94,1.26-95.95,3.27-154.66,0-41.23,0-80.57-2.33-120.66Zm-4.95,0c2.15,41.11,3,79.79,2.39,120.53-2.08,61-2.83,105-4.32,154.24-2.45,58.11-3.6,75.77-3.49,133.29,1,11.25-.13,71.12,1.19,95.94h1.53c-1.21-24.68-.78-84.22-.8-95.45.73-56.06.77-71.93,3.15-133.23.61-59.94,2.55-95.95,4.55-154.66,0-41.23-.3-80.57-2.68-120.66Zm-4.23,0h1.53c2.46,40.09,3.16,79.43,2.68,120.66-2,58.71-4.31,94.72-4.92,154.66C171.9,336.3,171,352.29,171.36,409c0,11.23.39,70.68,1.73,95.45h-1.53c-1.61-25.07-1.18-84.69-2.12-95.94-1.32-58.21.89-75.89,4.59-133.29,1.49-49.2,2.6-93.22,4.68-154.24.66-40.74-.23-79.42-2.39-120.53Zm-4.76,0h1.53c2.6,40.12,4.25,79.69,3.77,120.93-2,58.7-5.79,94.45-6.39,154.39-4.78,60.16-6.65,75.95-5.36,133,0,11.24,1.27,70.74,2.45,95.72h-2.75c-1.65-24.9-.86-84.69-1.8-95.94-2.18-58.52.71-76.29,5.51-133.29,1.49-49.2,3.71-93,6.52-154,.66-40.75-1.18-79.65-3.48-120.8Zm-16.64,0c.86,48.7-10.78,69-8,121.21,3.19,60.25,6.76,74.34,7.64,122.92.94,29.11-5.23,76.71-6.62,104.72-1.19,30.78-1.89,59.59-2.83,88.64-1.6,11.15-7.18,47.32-6.67,66.51h6.38c-.83-19.14,6-54.66,6.92-66.05,2.09-29.67,1.59-65.87,4.54-88.26,1.25-15.27,3.65-37.64,5.58-58.22q4.17-37.58,4.84-76.82l4.52-78.75q1.64-53.37-1.9-106.75L167.56.44h-2.75l1.9,29.78c2.27,35.82,2.54,71,1.31,105.7-2.12,26-3.61,52.92-5,79q-.73,37-3.21,70.6-2.64,16.27-3,0c0-16.82.94-27.66.55-40.31-.62-56.6,2.54-63.76,5.31-122.87.14-41.31-.18-80.91-3.58-121.82Zm1.14,59.49c-3.51.64-6.11,27.38-6.38,45.39.19,19.21,1.16,38.44,5.15,56.91.92,4.25,2.89,3.36,3,0,.91-34.4,3.49-101.33-1.75-102.3ZM293.2,504.44c-.86-48.69,10.78-68.95,8-121.2C298,323,294.43,308.9,293.56,260.32c-.95-29.11,5.22-76.71,6.61-104.73C301.36,124.81,302.06,96,303,67c1.6-11.16,7.18-47.33,6.68-66.52h-6.39c.83,19.14-6,54.66-6.92,66.05-2.1,29.68-1.59,65.88-4.54,88.26-1.25,15.27-3.64,37.65-5.58,58.22q-4.17,37.58-4.84,76.83l-4.52,78.75q-1.63,53.37,1.9,106.74l1.77,29.15h2.75l-1.9-29.78c-2.27-35.81-2.54-71-1.31-105.69,2.12-26.05,3.61-52.92,4.95-79q.74-37,3.21-70.61,2.64-16.26,2.95,0c0,16.81-.94,27.66-.55,40.31.62,56.59-2.53,63.75-5.31,122.86-.13,41.32.26,80.92,3.66,121.82ZM292.06,445c-5.24-1-2.66-67.9-1.75-102.31.09-3.36,2.07-4.24,3,0,4,18.48,4.95,37.7,5.14,56.92-.27,18-2.87,44.75-6.38,45.39ZM138.45.44h6.38c2.09,40.66-5.3,79.88-4.32,121.58,4,59.35,6.51,66,5.79,123.11.89,28.91-4.13,76.4-6.36,103.54-.91,25.31-.84,59.84-2.65,89.52-.89,11.43-2.4,47-2,66.25h-1.64c-.43-19.35-.89-55.71.35-66.72,1-29.8,1.59-58.57,2.1-88.43,1.39-28,6.38-75.61,5.44-104.72.17-49.37-3-63.26-3.61-122.68-.4-41.27,1.18-80.36.5-121.45Zm171.23,504h-6.39c-2.09-40.65,5.3-79.87,4.31-121.58-3.94-59.35-6.51-66-5.78-123.1-.89-28.91,4.13-76.41,6.36-103.54.91-25.31.84-59.84,2.65-89.52.89-11.43,2.41-47,2-66.26h1.64c.43,19.35.89,55.72-.35,66.73-1,29.8-1.59,58.57-2.1,88.42-1.39,28-6.38,75.62-5.44,104.73-.17,49.36,3,63.25,3.61,122.68.4,41.27-1.17,80.35-.49,121.44Zm-176-504h1.64c1.17,40.35-1.8,80.12-.52,121.58,2,59.35,3.93,118.12-.11,177.57-.75,28.52-1.7,56.76-2.58,84.62-.56,31.24-1.6,61.8-2.31,91.47,0,9.91.71,19.22,1,28.76h-1.86c-.3-9.66-.5-19.33-.43-29,.13-29.8,1.79-60,1.44-90.63.77-28.62,1.83-57.34,3.15-85.79,3-59.14.23-117.25-.23-177.15-.4-41.27,1.45-80.36.81-121.45Zm180.78,504h-1.64c-1.17-40.34,1.8-80.11.52-121.58-2-59.35-3.93-118.11.11-177.56.75-28.52,1.7-56.76,2.58-84.61.57-31.26,1.61-61.81,2.32-91.48,0-9.91-.72-19.22-1-28.77h1.86c.3,9.67.5,19.33.43,29-.13,29.8-1.79,60-1.44,90.63-.76,28.62-1.82,57.34-3.15,85.79-3,59.13-.23,117.24.22,177.15.41,41.27-1.44,80.35-.8,121.44ZM128.93.44c1,41.23-1.86,80.11-1,121.21.13,60.95.45,118.61-.48,177.07-1,61.76-2.83,123.49-3.85,177.13,0,9.74.79,19.17.86,28.59h2c-.35-9.36-1.06-18.33-1.07-28.21,1.44-53.07,2.46-114,4.29-177.19,1.06-60.78.56-118.77.07-177.26C128.15,80.4,131.9,40.71,130.79.44Zm-4.48,0h2C127.46,40.79,123.7,80.56,125,122c-.72,59-.11,117.31-.71,177.26-1.19,60.16-2.13,119.39-3.38,176.4,0,9.91.08,19.22.37,28.76h-2.05c.06-9.82-.1-19.33,0-29,.44-58.88,1.26-120,3.49-176.74-.61-59.94-1.38-117.18.54-176.83C122.8,80.62,125,41.53,124.45.44ZM1.27.44H3.32C4.38,40.79,3.2,80.56,4.48,122c-.72,59-.11,117.31-.71,177.26-1.18,60.16-.59,110.24-1.85,167.26,0,9.91,1.11,28.36,1.4,37.9h-2c.06-9.82-1.12-28.47-1-38.13.44-58.86-.28-110.9,2-167.59C1.56,238.78.8,181.54,2.71,121.89,2.3,80.62,1.87,41.53,1.27.44Zm117.94,0c.62,41-1.32,80.26-.91,121.45-2,59.9-1,117.7-1.39,176.83-.42,58.63-2.11,117.86-2.56,176.74-.07,9.65.25,14.27.61,23.86a160.71,160.71,0,0,0,1.36-23.64c.76-57.37,1.76-116.43,2.87-176.64-.3-60.78-.31-118.53.88-177-.89-41.38,2.65-81.28,1.19-121.58Zm-13.64,0h6.67c2.26,40-.76,75.51.42,121.8.23,59.88-.94,87.81-.46,147.61-2.66,56.45-2.62,96.88-3.41,157.94-.48,13.6,1.55,55.46,3.45,76.65h-6.67c-1.89-20.7-3.92-64.88-2.95-75.29,0-57.15,2.5-98.91,4.22-159-.19-59.43,1.62-88.18,1.37-148C107.86,81.2,108.76,41,105.57.44ZM85.84.44H89c-2,46.83-3,107.85-3.81,153.69,1.91,52.5.36,125.17,7.72,174.19,1.7,11.32,2.51,7.52,2.88-1.59C97.54,283.14,99,206.4,99,153.51,100.53,103.14,97.78,28.27,95.8.44h3.91c2.19,25.13,5,84.85,3.86,152.71-2.25,50.75-1.64,151.58-5,210.36-.82,14.13-4.49,17.7-6.85.66C82.28,296.47,80.22,224.58,81,153.84c.42-38.8,2.29-65.92,2.5-94.55-.15-18.24.58-36.79,2.31-58.85ZM76,.44h3.54c-1.91,40.53-2.2,80.76-2,121.71-.22,59.83.11,117.47,2,176.6,4.11,59.66,12.51,117.54,8,175.07-.1,9.73,1.78,20.43,1.54,30.62H85.84c.41-10.47-2-21.55-1.65-31.4,3-68.71-9-117.86-8.51-174-1.41-59.81-2.08-118.24-1.56-177.53C74,80.37,73.68,40.7,76,.44Zm-6.44,0c-1.64,40.26-1.29,79.93-2.22,121.07-.53,59.29.34,117.72,1.75,177.53,1.39,58.91,5.54,116.39,6.36,174.32.37,9.9.93,20.73.55,31.08h3.54c.37-10.09-1-20.6-1-30.32.55-59.42-6.41-116.79-7.62-175.07-1.23-59.58-1-117.44-1.33-176.9C69.44,81.2,69.73,41,71.35.44Zm-6,0h1.82C64,41,65.65,81.67,63.61,122.15c-3,59.32-.42,117.32,1.33,176.9,1.71,58.25,3.91,116.52,5.49,175.9.26,9.71,1.28,19.67.92,29.49h-1.8c.34-10.14-1-21-1.41-30.92C66,415.29,65.17,357.9,63.06,299c-2.15-59.81-3.33-118.24-1.75-177.53,2.38-40.23.78-80.68,2.23-121.07Zm-4.75,0c-1.6,40.49-.93,81.29-3.31,121.59-3.52,59.29.24,117.41,2.83,177.21,2.14,59.57,4,117.42,4.37,175.19.36,9.82,1.35,20,.86,30h1.82c.48-9.87-1.31-19.94-1.57-29.6.14-59.39-1.87-117.33-3.6-175.58-2.5-59.58-6-117.26-2.41-176.6C60.2,82.16,59.18,41.14,60.61.44Zm0,504h1.82c.53-9.62,0-19.19-.11-28.87-.63-59.68-3-119.09-4.82-176.52-5.12-59.83-9-122.5-4.71-181.62.8-40.37,3.69-76.25,5.16-117h-2c-2.23,40.23-4,76.46-5.54,117C42.86,177.14,48,239.93,53.81,299c1.74,58.37,4.37,118.32,4.63,175.33.37,9.88.68,20,.35,30.07Zm-2.66,0c2.28-54.69-2-105.35-5.35-158.19-5.72-85.51-9.71-168.43-6.65-254.6,1.07-29.93,4.7-54.22,6-91.21H45.76C44.54,31.94,42.34,61,41.23,90.78c-3.19,85.66.15,169,6.51,255.17,2,48.4,8.37,109.64,6.38,158.49Zm-6,0H45.76c.49-38-3.92-137.8-3.45-181.9,1.73.84,9.19,132.48,7.8,181.9ZM7.09,252c0,46.91-3.08,100-.92,154.46,1.79,20.4,6-151.84.92-154.46ZM317.33,504.44h1.86c-.82-18.29-1.21-36.8-1.85-55.18C316.64,466.57,316.41,484.6,317.33,504.44Z" fill="#9bcebe" fill-rule="evenodd"/></g><g opacity="0.85"><path d="M365.66,91.65c1.07-29.93,4.71-54.22,6-91.21h-4.35c-1.22,31.5-3.42,60.58-4.53,90.34-3.19,85.66.15,169,6.52,255.17,2,48.4,8.36,109.64,6.38,158.49h2c2.28-54.69-2-105.35-5.35-158.19C366.59,260.74,362.6,177.82,365.66,91.65Z" fill="#9bcebe"/><path d="M392.49,299.05c-1.23-59.58-1-117.44-1.32-176.9C391,81.2,391.26,41,392.88.44h-1.8c-1.64,40.26-1.28,79.93-2.22,121.07-.52,59.29.34,117.72,1.75,177.53C392,358,396.15,415.43,397,473.36c.37,9.9.93,20.73.55,31.08h3.54c.37-10.09-1-20.6-.95-30.32C400.66,414.7,393.7,357.33,392.49,299.05Z" fill="#9bcebe"/><path d="M359.12,274.91c-1.94-30.22-1.71-58.61-2-88.41.35-19.91,1-41.45.73-65.28,1.2-40.53.94-79.32.58-120.78h-6.62c.37,40.09,1.15,79.43-.84,120.66-.32,25,.32,45.81.81,65.82.13,28.32.81,55,2.94,89.18,1.63,60.88-1,76.48.12,132.89,0,11.23-2.75,70.35-3,95.45h6.62c.5-25.07.67-84.69,1.05-95.94C359,351,360.16,333,359.12,274.91Z" fill="#9bcebe"/><path d="M367.29,504.44h4.35c1.39-49.42-6.07-181.06-7.8-181.9C363.37,366.64,367.78,466.45,367.29,504.44Z" fill="#9bcebe"/><path d="M386.47,299.05c-1.75-59.58-4.32-117.58-1.33-176.9,2-40.48.42-81.12,1.75-121.71h-1.81c-1.46,40.39.14,80.84-2.24,121.07-1.57,59.29-.4,117.72,1.75,177.53,2.12,58.86,2.93,116.24,5.08,174.48.37,9.9,1.75,20.78,1.41,30.92h1.8c.36-9.82-.66-19.78-.91-29.49C390.38,415.57,388.18,357.3,386.47,299.05Z" fill="#9bcebe"/><path d="M377.22,299.05c-5.13-59.83-9-122.5-4.72-181.62.8-40.37,3.69-76.25,5.16-117h-2c-2.24,40.23-4,76.46-5.55,117-5.72,59.71-.61,122.5,5.23,181.61,1.75,58.37,4.37,118.32,4.63,175.33.37,9.88.68,20,.35,30.07h1.82c.53-9.62,0-19.19-.11-28.87C381.4,415.89,379.06,356.48,377.22,299.05Z" fill="#9bcebe"/><path d="M381.72,299.26c-2.5-59.58-6-117.26-2.41-176.6,2.42-40.5,1.4-81.52,2.83-122.22h-1.82C378.72,40.93,379.4,81.73,377,122c-3.52,59.29.24,117.41,2.83,177.21,2.15,59.57,4,117.42,4.37,175.19.36,9.82,1.36,20,.87,30h1.81c.48-9.87-1.31-19.94-1.57-29.6C385.46,415.45,383.45,357.51,381.72,299.26Z" fill="#9bcebe"/><path d="M322.81.44c.59,41.09,1,80.18,1.43,121.46-1.91,59.64-1.14,116.88-.54,176.82-2.23,56.69-1.51,108.73-1.95,167.59-.07,9.66,1.11,28.31,1.06,38.13h2c-.28-9.54-1.38-28-1.39-37.9,1.25-57,.66-107.1,1.84-167.26.6-59.95,0-118.29.71-177.26-1.28-41.46-.1-81.23-1.16-121.58Z" fill="#9bcebe"/><path d="M328.62,252c0,46.91-3.08,100-.91,154.46C329.49,426.83,333.7,254.59,328.62,252Z" fill="#9bcebe"/><path d="M337.85,231.75c-1-27.91-2.19-68.32-4.4-115.35-.53-40.74,4.38-76.78,5.07-116h-5.85c1.83,30.12-6.25,68.31-5.73,115.61,1.11,48.4,1.69,68.94,2.86,114.54,5.52,58.84,7.11,87.36,4.24,145.51-2.65,22.46-4.75,60.44-3.93,93,.33,13.09,1.88,25.27,2.56,35.31h5.85c2-34.71,1.36-66.18-.34-127.4C339.07,318.55,338.6,290.67,337.85,231.75Z" fill="#9bcebe"/><path d="M413.42,281.56c2.1-5.72.75-77.28,1.95-142.12.2-14.9.87-88-1.26-92.54-2.59,7.36-1.17,77.77-1.13,92.54C411.64,192.31,412.54,276.19,413.42,281.56Z" fill="#9bcebe"/><path d="M343.71,200.38c0-27.34,0-53.12-.59-78.36-1.3-41.55,1.58-81.61.7-121.58H341.3c.06,41.21-1.27,80.39-.59,121.46-.11,27.42.63,54.44.54,81.94.47,31.16,1.29,62.85,1.06,94.88-.41,58.63.34,117.86-.1,176.74-.07,9.65-1.08,19.32-.91,29h2.52c-.2-9.5-.15-18.85-.16-28.76.77-57.37-.38-116.43.72-176.64C344.07,263.2,342.94,229.83,343.71,200.38Z" fill="#9bcebe"/><path d="M347.64,116.88c-1.27-41.43,1.7-76.92.95-116.44h-1.82c.79,40.09-1.57,74.87-.9,116.31.67,59.92.79,80.38,1.4,140.31.16,57.47,1.74,79.54.48,137.68-.08,11-1.25,82.2-1,109.7h1.82c-.13-27.55,1.06-98.18,1.05-109.52.5-57.21.89-76.84-.69-137.4C348.75,197.57,347.92,176.9,347.64,116.88Z" fill="#9bcebe"/><path d="M504.22,12.11c-.19-3.89-.39-7.77-.62-11.67h-1.52c1,19,1.71,37.5,2.14,55.91Z" fill="#9bcebe"/><path d="M441.6,122c-.89-41.38,2.65-81.28,1.19-121.58h-2c.61,41-1.32,80.26-.92,121.46-2.05,59.89-1,117.69-1.39,176.82-.41,58.63-2.11,117.86-2.56,176.74-.07,9.65.26,14.27.61,23.86a160.71,160.71,0,0,0,1.36-23.64c.76-57.37,1.76-116.43,2.87-176.64C440.42,238.26,440.41,180.51,441.6,122Z" fill="#9bcebe"/><path d="M492.76,136.34Q494.4,83,490.86,29.59L489.09.44h-2.75l1.9,29.78c2.27,35.82,2.54,71,1.31,105.7-2.12,26-3.61,52.92-4.95,79q-.74,37-3.21,70.6-2.64,16.27-2.95,0c0-16.82.94-27.66.55-40.31-.62-56.6,2.54-63.76,5.31-122.87.14-41.31-.18-80.91-3.58-121.82h-4.27c.86,48.7-10.78,69-8,121.21,3.19,60.25,6.76,74.34,7.64,122.92.94,29.11-5.23,76.71-6.61,104.72-1.2,30.78-1.9,59.6-2.83,88.64-1.61,11.15-7.19,47.32-6.68,66.51h6.38c-.83-19.14,6-54.66,6.92-66.05,2.1-29.67,1.6-65.87,4.54-88.26,1.26-15.27,3.65-37.64,5.58-58.22q4.17-37.58,4.84-76.82Zm-16.4,25.89c-4-18.47-5-37.7-5.15-56.91.27-18,2.87-44.75,6.38-45.39,5.24,1,2.66,67.9,1.75,102.3C479.25,165.59,477.28,166.48,476.36,162.23Z" fill="#9bcebe"/><path d="M492,275.76c.6-59.94,4.38-95.69,6.39-154.39.48-41.24-1.17-80.81-3.77-120.93h-1.53c2.3,41.15,4.14,80.05,3.48,120.8-2.81,61-5,104.77-6.52,154-4.8,57-7.69,74.77-5.51,133.29.94,11.25.15,71,1.8,95.94h2.75c-1.18-25-2.43-84.49-2.45-95.72C485.36,351.71,487.22,335.92,492,275.76Z" fill="#9bcebe"/><path d="M480.66,425.5c-.64-14.52-.94-23.74-1.52-24.09-.26,1.28.28,23.24.14,39.3-.45,14.33-2.92,43.67-2.83,63.73h4.27C479.06,477.65,480.34,446.36,480.66,425.5Z" fill="#9bcebe"/><path d="M504.22,448.12V313.77c-.72,31.43-1.08,52.18-1.31,94.73.38,11.25-1.94,71.2-.83,95.94h1.52C503,492.49,503.57,469,504.22,448.12Z" fill="#9bcebe"/><path d="M461.47,348.67c2.23-27.14,7.25-74.63,6.36-103.54.73-57.08-1.84-63.76-5.78-123.11-1-41.7,6.4-80.92,4.31-121.58H460c.68,41.09-.9,80.18-.5,121.46.63,59.41,3.78,73.3,3.61,122.67.94,29.11-4,76.71-5.44,104.72-.5,29.86-1.07,58.63-2.1,88.43-1.23,11-.78,47.37-.35,66.72h1.64c-.42-19.25,1.09-54.82,2-66.25C460.63,408.51,460.57,374,461.47,348.67Z" fill="#9bcebe"/><path d="M504.22,177.51v-49c-1.89,57.13-2.64,99.52-4.07,146.66-2.45,58.11-3.6,75.77-3.48,133.29.94,11.25-.14,71.12,1.19,95.94h1.52c-1.21-24.68-.78-84.22-.79-95.45.72-56.06.76-71.93,3.14-133.23C502.12,237.25,503.07,208.62,504.22,177.51Z" fill="#9bcebe"/><path d="M497.14,275.76c.61-59.94,2.92-95.95,4.92-154.66.49-41.23-.22-80.57-2.68-120.66h-1.52c2.15,41.11,3,79.79,2.39,120.53-2.08,61-3.2,105-4.69,154.24-3.69,57.4-5.91,75.08-4.59,133.29.95,11.25.51,70.87,2.12,95.94h1.53c-1.34-24.77-1.71-84.22-1.73-95.45C492.49,352.29,493.43,336.3,497.14,275.76Z" fill="#9bcebe"/><path d="M445.8,299.28c.6-59.95,0-118.29.71-177.26C445.23,80.56,449,40.79,447.93.44H446c.58,41.09-1.66,80.18-1.25,121.46-1.91,59.64-1.15,116.88-.54,176.82-2.23,56.69-3.05,117.86-3.49,176.74-.07,9.65.09,19.16,0,29h2c-.29-9.54-.36-18.85-.37-28.76C443.67,418.67,444.62,359.44,445.8,299.28Z" fill="#9bcebe"/><path d="M419.38,433.13c-1.37,1.43-5.15,30.08-2,71.31h3.9C418.42,469.5,420.86,434.26,419.38,433.13Z" fill="#9bcebe"/><path d="M420.07,363.51c3.39-58.78,2.79-159.61,5-210.36,1.17-67.86-1.67-127.58-3.86-152.71h-3.9c2,27.83,4.72,102.7,3.24,153.07-.05,52.89-1.5,129.63-3.24,173.22-.36,9.11-1.18,12.91-2.88,1.59-7.36-49-5.81-121.69-7.72-174.19.83-45.84,1.77-106.86,3.81-153.69h-3.18c-1.73,22.06-2.46,40.61-2.31,58.85-.21,28.63-2.08,55.75-2.5,94.55-.81,70.74,1.25,142.63,10.66,210.33C415.58,381.21,419.25,377.64,420.07,363.51Z" fill="#9bcebe"/><path d="M433.78.44h-6.67c3.18,40.53,2.28,80.76,2.63,121.71.25,59.83-1.56,88.58-1.36,148-1.73,60.08-4.26,101.84-4.23,159-1,10.41,1.06,54.59,3,75.29h6.67c-1.91-21.19-3.94-63.05-3.45-76.65.78-61.06.74-101.49,3.4-157.94-.48-59.8.69-87.73.47-147.61C433,76,436,40.46,433.78.44Z" fill="#9bcebe"/><path d="M401,298.75c-1.87-59.13-2.2-116.77-2-176.6-.2-40.95.09-81.18,2-121.71h-3.54c-2.3,40.26-2,79.93-1.86,121.07-.53,59.29.14,117.72,1.55,177.53-.54,56.14,11.57,105.29,8.51,174-.38,9.85,2.06,20.93,1.65,31.4h3.18c.24-10.19-1.64-20.89-1.54-30.62C413.55,416.29,405.14,358.41,401,298.75Z" fill="#9bcebe"/><path d="M456.21,299.59c4.05-59.45,2.07-118.22.11-177.57C455,80.56,458,40.79,456.84.44H455.2c.64,41.09-1.21,80.18-.8,121.46.46,59.89,3.22,118,.22,177.14-1.32,28.45-2.38,57.17-3.15,85.79.35,30.66-1.31,60.83-1.44,90.63-.07,9.65.13,19.32.43,29h1.86c-.28-9.54-1-18.85-1-28.76.71-29.67,1.75-60.23,2.31-91.47C454.51,356.35,455.46,328.11,456.21,299.59Z" fill="#9bcebe"/><path d="M451.15,299c1.06-60.78.56-118.77.07-177.26-1.54-41.38,2.22-81.07,1.1-121.34h-1.86c1,41.23-1.86,80.11-1,121.21.13,60.95.46,118.61-.47,177.07-1,61.76-2.83,123.49-3.86,177.13,0,9.74.79,19.17.87,28.59h1.94c-.35-9.36-1.05-18.33-1.07-28.21C448.3,423.16,449.32,362.25,451.15,299Z" fill="#9bcebe"/></g></g></g></g></svg>